<svg width="680" height="62" viewBox="0 0 680 62" fill="none" xmlns="http://www.w3.org/2000/svg">
<mask id="path-1-outside-1_62_88" maskUnits="userSpaceOnUse" x="-0.680176" y="-0.52002" width="680" height="62" fill="black">
<rect fill="white" x="-0.680176" y="-0.52002" width="680" height="62"/>
<path d="M21.6398 6.75998C19.0265 6.75998 16.9198 7.31998 15.3198 8.43998C13.7198 9.50665 12.4665 11.08 11.5598 13.16C10.7065 15.24 10.1198 17.7733 9.79982 20.76C9.47982 23.7466 9.31982 27.1333 9.31982 30.92C9.31982 34.44 9.45316 37.6666 9.71982 40.6C10.0398 43.48 10.6532 45.96 11.5598 48.04C12.4665 50.12 13.7732 51.7466 15.4798 52.92C17.1865 54.04 19.4532 54.6 22.2798 54.6C24.6798 54.6 26.6265 54.2 28.1198 53.4C29.6665 52.6 30.8665 51.5333 31.7198 50.2C32.6265 48.8133 33.2398 47.2133 33.5598 45.4C33.9332 43.5333 34.1198 41.56 34.1198 39.48H42.1198C42.1198 42.4133 41.7732 45.16 41.0798 47.72C40.3865 50.2266 39.2398 52.44 37.6398 54.36C36.0932 56.2266 34.0132 57.6933 31.3998 58.76C28.8398 59.8266 25.6932 60.36 21.9598 60.36C17.5332 60.36 13.9598 59.6133 11.2398 58.12C8.51982 56.6266 6.38649 54.52 4.83982 51.8C3.34649 49.08 2.33316 45.8266 1.79982 42.04C1.26649 38.2533 0.999825 34.0666 0.999825 29.48C0.999825 25.5866 1.21316 21.9066 1.63982 18.44C2.06649 14.9733 2.97316 11.96 4.35982 9.39998C5.79982 6.78665 7.85316 4.73331 10.5198 3.23998C13.1865 1.74665 16.7332 0.99998 21.1598 0.99998C22.7065 0.99998 24.1465 1.13331 25.4798 1.39998C26.8665 1.61331 28.0932 2.03998 29.1598 2.67998C30.2798 3.26664 31.1865 4.11998 31.8798 5.23998C32.6265 6.30664 33.1598 7.66664 33.4798 9.31998H33.8798L35.4798 1.87998H41.7998V21.48H33.8798C33.8798 16.9466 32.8665 13.3733 30.8398 10.76C28.8665 8.09331 25.7998 6.75998 21.6398 6.75998ZM75.4411 54.68L81.5211 54.04L70.6411 34.68H63.6011V53.08L71.0411 54.68V59.48H48.2411V54.68L55.6811 53.08V8.27998L48.2411 6.67998V1.87998H73.0411C76.7744 1.87998 79.7611 2.33331 82.0011 3.23998C84.2944 4.09331 86.0544 5.26664 87.2811 6.75998C88.5611 8.19998 89.4144 9.93331 89.8411 11.96C90.2677 13.9333 90.4811 16.04 90.4811 18.28C90.4811 20.2 90.3211 22.04 90.0011 23.8C89.7344 25.56 89.1744 27.1333 88.3211 28.52C87.4677 29.9066 86.2677 31.1066 84.7211 32.12C83.1744 33.1333 81.1744 33.8533 78.7211 34.28L90.1611 53.08L95.2811 54.68V59.48H75.4411V54.68ZM71.7611 28.68C74.1077 28.68 75.9744 28.44 77.3611 27.96C78.8011 27.4266 79.8944 26.7333 80.6411 25.88C81.3877 24.9733 81.8677 23.9066 82.0811 22.68C82.2944 21.4 82.4011 20.04 82.4011 18.6C82.4011 16.9466 82.2944 15.48 82.0811 14.2C81.8677 12.8666 81.3877 11.7466 80.6411 10.84C79.8944 9.87998 78.8011 9.15998 77.3611 8.67998C75.9744 8.14664 74.1077 7.87998 71.7611 7.87998H63.6011V28.68H71.7611ZM121.744 6.67998L114.304 8.27998V53.08L121.744 54.68V59.48H98.9442V54.68L106.384 53.08V8.27998L98.9442 6.67998V1.87998H121.744V6.67998ZM142.351 7.87998V53.08L148.191 54.68V59.48H126.991V54.68L134.431 53.08V8.27998L126.991 6.67998V1.87998H148.191L161.071 52.44L174.031 1.87998H195.231V6.67998L187.791 8.27998V53.08L195.231 54.68V59.48H174.031V54.68L179.871 53.08V7.87998L166.831 59.48H155.311L142.351 7.87998ZM200.507 54.68L207.947 53.08V8.27998L200.507 6.67998V1.87998H238.907V19.48H232.587L231.547 7.87998H215.867V27H230.907V33.64H215.867V53.48H231.467L232.587 40.68H238.907V59.48H200.507V54.68Z"/>
<path d="M288.8 54.68L294.88 54.04L284 34.68H276.96V53.08L284.4 54.68V59.48H261.6V54.68L269.04 53.08V8.27998L261.6 6.67998V1.87998H286.4C290.134 1.87998 293.12 2.33331 295.36 3.23998C297.654 4.09331 299.414 5.26664 300.64 6.75998C301.92 8.19998 302.774 9.93331 303.2 11.96C303.627 13.9333 303.84 16.04 303.84 18.28C303.84 20.2 303.68 22.04 303.36 23.8C303.094 25.56 302.534 27.1333 301.68 28.52C300.827 29.9066 299.627 31.1066 298.08 32.12C296.534 33.1333 294.534 33.8533 292.08 34.28L303.52 53.08L308.64 54.68V59.48H288.8V54.68ZM285.12 28.68C287.467 28.68 289.334 28.44 290.72 27.96C292.16 27.4266 293.254 26.7333 294 25.88C294.747 24.9733 295.227 23.9066 295.44 22.68C295.654 21.4 295.76 20.04 295.76 18.6C295.76 16.9466 295.654 15.48 295.44 14.2C295.227 12.8666 294.747 11.7466 294 10.84C293.254 9.87998 292.16 9.15998 290.72 8.67998C289.334 8.14664 287.467 7.87998 285.12 7.87998H276.96V28.68H285.12ZM330.624 1.87998H341.824L357.504 53.08L363.424 54.68V59.48H342.384V54.68L349.504 53.08L345.584 39.8H326.864L322.944 53.08L330.144 54.68V59.48H309.024V54.68L314.944 53.08L330.624 1.87998ZM328.784 33.16H343.584L336.224 8.03998L328.784 33.16ZM399.349 7.87998H388.149V53.08L396.389 54.68V59.48H371.989V54.68L380.229 53.08V7.87998H368.949L367.909 19.88H361.589V1.87998H406.789V19.88H400.469L399.349 7.87998ZM411.6 54.68L419.04 53.08V8.27998L411.6 6.67998V1.87998H450V19.48H443.68L442.64 7.87998H426.96V27H442V33.64H426.96V53.48H442.56L443.68 40.68H450V59.48H411.6V54.68ZM478.035 60.36C475.955 60.36 474.221 60.1466 472.835 59.72C471.501 59.2933 470.408 58.7333 469.555 58.04C468.701 57.3466 468.035 56.5466 467.555 55.64C467.075 54.7333 466.675 53.8266 466.355 52.92H465.875L464.275 59.48H457.875V41.72H465.875C465.875 43.9066 466.141 45.7733 466.675 47.32C467.261 48.8133 468.035 50.04 468.995 51C469.955 51.96 471.101 52.68 472.435 53.16C473.821 53.5866 475.315 53.8 476.915 53.8C478.675 53.8 480.168 53.5866 481.395 53.16C482.621 52.68 483.635 52.04 484.435 51.24C485.235 50.44 485.795 49.5066 486.115 48.44C486.488 47.3733 486.675 46.2533 486.675 45.08C486.675 42.52 485.981 40.52 484.595 39.08C483.208 37.5866 481.475 36.3333 479.395 35.32C477.368 34.3066 475.128 33.4 472.675 32.6C470.275 31.7466 468.035 30.68 465.955 29.4C463.928 28.0666 462.221 26.36 460.835 24.28C459.448 22.2 458.755 19.4266 458.755 15.96C458.755 13.4533 459.155 11.2666 459.955 9.39998C460.755 7.53331 461.821 5.98665 463.155 4.75998C464.541 3.47998 466.168 2.54665 468.035 1.95998C469.901 1.31998 471.875 0.99998 473.955 0.99998C475.341 0.99998 476.648 1.15998 477.875 1.47998C479.155 1.74664 480.301 2.19998 481.315 2.83998C482.381 3.47998 483.261 4.33331 483.955 5.39998C484.648 6.46664 485.128 7.77331 485.395 9.31998H485.795L487.395 1.87998H493.715V21.48H485.795C485.795 19.88 485.608 18.2533 485.235 16.6C484.861 14.9466 484.248 13.4533 483.395 12.12C482.541 10.7866 481.448 9.69331 480.115 8.83998C478.835 7.98664 477.261 7.55998 475.395 7.55998C474.221 7.55998 473.101 7.74664 472.035 8.11998C471.021 8.49331 470.115 9.02664 469.315 9.71998C468.515 10.4133 467.875 11.2666 467.395 12.28C466.968 13.24 466.755 14.36 466.755 15.64C466.755 17.9333 467.448 19.7466 468.835 21.08C470.221 22.36 471.928 23.48 473.955 24.44C476.035 25.4 478.275 26.3333 480.675 27.24C483.128 28.0933 485.368 29.2133 487.395 30.6C489.475 31.9333 491.208 33.6933 492.595 35.88C493.981 38.0666 494.675 40.9466 494.675 44.52C494.675 49.48 493.208 53.3733 490.275 56.2C487.395 58.9733 483.315 60.36 478.035 60.36Z"/>
<path d="M544.113 54.68L550.193 54.04L539.313 34.68H532.273V53.08L539.713 54.68V59.48H516.913V54.68L524.353 53.08V8.27998L516.913 6.67998V1.87998H541.713C545.446 1.87998 548.433 2.33331 550.673 3.23998C552.966 4.09331 554.726 5.26664 555.953 6.75998C557.233 8.19998 558.086 9.93331 558.513 11.96C558.94 13.9333 559.153 16.04 559.153 18.28C559.153 20.2 558.993 22.04 558.673 23.8C558.406 25.56 557.846 27.1333 556.993 28.52C556.14 29.9066 554.94 31.1066 553.393 32.12C551.846 33.1333 549.846 33.8533 547.393 34.28L558.833 53.08L563.953 54.68V59.48H544.113V54.68ZM540.433 28.68C542.78 28.68 544.646 28.44 546.033 27.96C547.473 27.4266 548.566 26.7333 549.313 25.88C550.06 24.9733 550.54 23.9066 550.753 22.68C550.966 21.4 551.073 20.04 551.073 18.6C551.073 16.9466 550.966 15.48 550.753 14.2C550.54 12.8666 550.06 11.7466 549.313 10.84C548.566 9.87998 547.473 9.15998 546.033 8.67998C544.646 8.14664 542.78 7.87998 540.433 7.87998H532.273V28.68H540.433ZM590.416 6.67998L582.976 8.27998V53.08L590.416 54.68V59.48H567.616V54.68L575.056 53.08V8.27998L567.616 6.67998V1.87998H590.416V6.67998ZM616.863 60.36C614.783 60.36 613.05 60.1466 611.663 59.72C610.33 59.2933 609.236 58.7333 608.383 58.04C607.53 57.3466 606.863 56.5466 606.383 55.64C605.903 54.7333 605.503 53.8266 605.183 52.92H604.703L603.103 59.48H596.703V41.72H604.703C604.703 43.9066 604.97 45.7733 605.503 47.32C606.09 48.8133 606.863 50.04 607.823 51C608.783 51.96 609.93 52.68 611.263 53.16C612.65 53.5866 614.143 53.8 615.743 53.8C617.503 53.8 618.996 53.5866 620.223 53.16C621.45 52.68 622.463 52.04 623.263 51.24C624.063 50.44 624.623 49.5066 624.943 48.44C625.316 47.3733 625.503 46.2533 625.503 45.08C625.503 42.52 624.81 40.52 623.423 39.08C622.036 37.5866 620.303 36.3333 618.223 35.32C616.196 34.3066 613.956 33.4 611.503 32.6C609.103 31.7466 606.863 30.68 604.783 29.4C602.756 28.0666 601.05 26.36 599.663 24.28C598.276 22.2 597.583 19.4266 597.583 15.96C597.583 13.4533 597.983 11.2666 598.783 9.39998C599.583 7.53331 600.65 5.98665 601.983 4.75998C603.37 3.47998 604.996 2.54665 606.863 1.95998C608.73 1.31998 610.703 0.99998 612.783 0.99998C614.17 0.99998 615.476 1.15998 616.703 1.47998C617.983 1.74664 619.13 2.19998 620.143 2.83998C621.21 3.47998 622.09 4.33331 622.783 5.39998C623.476 6.46664 623.956 7.77331 624.223 9.31998H624.623L626.223 1.87998H632.543V21.48H624.623C624.623 19.88 624.436 18.2533 624.063 16.6C623.69 14.9466 623.076 13.4533 622.223 12.12C621.37 10.7866 620.276 9.69331 618.943 8.83998C617.663 7.98664 616.09 7.55998 614.223 7.55998C613.05 7.55998 611.93 7.74664 610.863 8.11998C609.85 8.49331 608.943 9.02664 608.143 9.71998C607.343 10.4133 606.703 11.2666 606.223 12.28C605.796 13.24 605.583 14.36 605.583 15.64C605.583 17.9333 606.276 19.7466 607.663 21.08C609.05 22.36 610.756 23.48 612.783 24.44C614.863 25.4 617.103 26.3333 619.503 27.24C621.956 28.0933 624.196 29.2133 626.223 30.6C628.303 31.9333 630.036 33.6933 631.423 35.88C632.81 38.0666 633.503 40.9466 633.503 44.52C633.503 49.48 632.036 53.3733 629.103 56.2C626.223 58.9733 622.143 60.36 616.863 60.36ZM639.882 54.68L647.322 53.08V8.27998L639.882 6.67998V1.87998H678.282V19.48H671.962L670.922 7.87998H655.242V27H670.282V33.64H655.242V53.48H670.842L671.962 40.68H678.282V59.48H639.882V54.68Z"/>
</mask>
<path d="M21.6398 6.75998C19.0265 6.75998 16.9198 7.31998 15.3198 8.43998C13.7198 9.50665 12.4665 11.08 11.5598 13.16C10.7065 15.24 10.1198 17.7733 9.79982 20.76C9.47982 23.7466 9.31982 27.1333 9.31982 30.92C9.31982 34.44 9.45316 37.6666 9.71982 40.6C10.0398 43.48 10.6532 45.96 11.5598 48.04C12.4665 50.12 13.7732 51.7466 15.4798 52.92C17.1865 54.04 19.4532 54.6 22.2798 54.6C24.6798 54.6 26.6265 54.2 28.1198 53.4C29.6665 52.6 30.8665 51.5333 31.7198 50.2C32.6265 48.8133 33.2398 47.2133 33.5598 45.4C33.9332 43.5333 34.1198 41.56 34.1198 39.48H42.1198C42.1198 42.4133 41.7732 45.16 41.0798 47.72C40.3865 50.2266 39.2398 52.44 37.6398 54.36C36.0932 56.2266 34.0132 57.6933 31.3998 58.76C28.8398 59.8266 25.6932 60.36 21.9598 60.36C17.5332 60.36 13.9598 59.6133 11.2398 58.12C8.51982 56.6266 6.38649 54.52 4.83982 51.8C3.34649 49.08 2.33316 45.8266 1.79982 42.04C1.26649 38.2533 0.999825 34.0666 0.999825 29.48C0.999825 25.5866 1.21316 21.9066 1.63982 18.44C2.06649 14.9733 2.97316 11.96 4.35982 9.39998C5.79982 6.78665 7.85316 4.73331 10.5198 3.23998C13.1865 1.74665 16.7332 0.99998 21.1598 0.99998C22.7065 0.99998 24.1465 1.13331 25.4798 1.39998C26.8665 1.61331 28.0932 2.03998 29.1598 2.67998C30.2798 3.26664 31.1865 4.11998 31.8798 5.23998C32.6265 6.30664 33.1598 7.66664 33.4798 9.31998H33.8798L35.4798 1.87998H41.7998V21.48H33.8798C33.8798 16.9466 32.8665 13.3733 30.8398 10.76C28.8665 8.09331 25.7998 6.75998 21.6398 6.75998ZM75.4411 54.68L81.5211 54.04L70.6411 34.68H63.6011V53.08L71.0411 54.68V59.48H48.2411V54.68L55.6811 53.08V8.27998L48.2411 6.67998V1.87998H73.0411C76.7744 1.87998 79.7611 2.33331 82.0011 3.23998C84.2944 4.09331 86.0544 5.26664 87.2811 6.75998C88.5611 8.19998 89.4144 9.93331 89.8411 11.96C90.2677 13.9333 90.4811 16.04 90.4811 18.28C90.4811 20.2 90.3211 22.04 90.0011 23.8C89.7344 25.56 89.1744 27.1333 88.3211 28.52C87.4677 29.9066 86.2677 31.1066 84.7211 32.12C83.1744 33.1333 81.1744 33.8533 78.7211 34.28L90.1611 53.08L95.2811 54.68V59.48H75.4411V54.68ZM71.7611 28.68C74.1077 28.68 75.9744 28.44 77.3611 27.96C78.8011 27.4266 79.8944 26.7333 80.6411 25.88C81.3877 24.9733 81.8677 23.9066 82.0811 22.68C82.2944 21.4 82.4011 20.04 82.4011 18.6C82.4011 16.9466 82.2944 15.48 82.0811 14.2C81.8677 12.8666 81.3877 11.7466 80.6411 10.84C79.8944 9.87998 78.8011 9.15998 77.3611 8.67998C75.9744 8.14664 74.1077 7.87998 71.7611 7.87998H63.6011V28.68H71.7611ZM121.744 6.67998L114.304 8.27998V53.08L121.744 54.68V59.48H98.9442V54.68L106.384 53.08V8.27998L98.9442 6.67998V1.87998H121.744V6.67998ZM142.351 7.87998V53.08L148.191 54.68V59.48H126.991V54.68L134.431 53.08V8.27998L126.991 6.67998V1.87998H148.191L161.071 52.44L174.031 1.87998H195.231V6.67998L187.791 8.27998V53.08L195.231 54.68V59.48H174.031V54.68L179.871 53.08V7.87998L166.831 59.48H155.311L142.351 7.87998ZM200.507 54.68L207.947 53.08V8.27998L200.507 6.67998V1.87998H238.907V19.48H232.587L231.547 7.87998H215.867V27H230.907V33.64H215.867V53.48H231.467L232.587 40.68H238.907V59.48H200.507V54.68Z" fill="black" fill-opacity="0.941176"/>
<path d="M288.8 54.68L294.88 54.04L284 34.68H276.96V53.08L284.4 54.68V59.48H261.6V54.68L269.04 53.08V8.27998L261.6 6.67998V1.87998H286.4C290.134 1.87998 293.12 2.33331 295.36 3.23998C297.654 4.09331 299.414 5.26664 300.64 6.75998C301.92 8.19998 302.774 9.93331 303.2 11.96C303.627 13.9333 303.84 16.04 303.84 18.28C303.84 20.2 303.68 22.04 303.36 23.8C303.094 25.56 302.534 27.1333 301.68 28.52C300.827 29.9066 299.627 31.1066 298.08 32.12C296.534 33.1333 294.534 33.8533 292.08 34.28L303.52 53.08L308.64 54.68V59.48H288.8V54.68ZM285.12 28.68C287.467 28.68 289.334 28.44 290.72 27.96C292.16 27.4266 293.254 26.7333 294 25.88C294.747 24.9733 295.227 23.9066 295.44 22.68C295.654 21.4 295.76 20.04 295.76 18.6C295.76 16.9466 295.654 15.48 295.44 14.2C295.227 12.8666 294.747 11.7466 294 10.84C293.254 9.87998 292.16 9.15998 290.72 8.67998C289.334 8.14664 287.467 7.87998 285.12 7.87998H276.96V28.68H285.12ZM330.624 1.87998H341.824L357.504 53.08L363.424 54.68V59.48H342.384V54.68L349.504 53.08L345.584 39.8H326.864L322.944 53.08L330.144 54.68V59.48H309.024V54.68L314.944 53.08L330.624 1.87998ZM328.784 33.16H343.584L336.224 8.03998L328.784 33.16ZM399.349 7.87998H388.149V53.08L396.389 54.68V59.48H371.989V54.68L380.229 53.08V7.87998H368.949L367.909 19.88H361.589V1.87998H406.789V19.88H400.469L399.349 7.87998ZM411.6 54.68L419.04 53.08V8.27998L411.6 6.67998V1.87998H450V19.48H443.68L442.64 7.87998H426.96V27H442V33.64H426.96V53.48H442.56L443.68 40.68H450V59.48H411.6V54.68ZM478.035 60.36C475.955 60.36 474.221 60.1466 472.835 59.72C471.501 59.2933 470.408 58.7333 469.555 58.04C468.701 57.3466 468.035 56.5466 467.555 55.64C467.075 54.7333 466.675 53.8266 466.355 52.92H465.875L464.275 59.48H457.875V41.72H465.875C465.875 43.9066 466.141 45.7733 466.675 47.32C467.261 48.8133 468.035 50.04 468.995 51C469.955 51.96 471.101 52.68 472.435 53.16C473.821 53.5866 475.315 53.8 476.915 53.8C478.675 53.8 480.168 53.5866 481.395 53.16C482.621 52.68 483.635 52.04 484.435 51.24C485.235 50.44 485.795 49.5066 486.115 48.44C486.488 47.3733 486.675 46.2533 486.675 45.08C486.675 42.52 485.981 40.52 484.595 39.08C483.208 37.5866 481.475 36.3333 479.395 35.32C477.368 34.3066 475.128 33.4 472.675 32.6C470.275 31.7466 468.035 30.68 465.955 29.4C463.928 28.0666 462.221 26.36 460.835 24.28C459.448 22.2 458.755 19.4266 458.755 15.96C458.755 13.4533 459.155 11.2666 459.955 9.39998C460.755 7.53331 461.821 5.98665 463.155 4.75998C464.541 3.47998 466.168 2.54665 468.035 1.95998C469.901 1.31998 471.875 0.99998 473.955 0.99998C475.341 0.99998 476.648 1.15998 477.875 1.47998C479.155 1.74664 480.301 2.19998 481.315 2.83998C482.381 3.47998 483.261 4.33331 483.955 5.39998C484.648 6.46664 485.128 7.77331 485.395 9.31998H485.795L487.395 1.87998H493.715V21.48H485.795C485.795 19.88 485.608 18.2533 485.235 16.6C484.861 14.9466 484.248 13.4533 483.395 12.12C482.541 10.7866 481.448 9.69331 480.115 8.83998C478.835 7.98664 477.261 7.55998 475.395 7.55998C474.221 7.55998 473.101 7.74664 472.035 8.11998C471.021 8.49331 470.115 9.02664 469.315 9.71998C468.515 10.4133 467.875 11.2666 467.395 12.28C466.968 13.24 466.755 14.36 466.755 15.64C466.755 17.9333 467.448 19.7466 468.835 21.08C470.221 22.36 471.928 23.48 473.955 24.44C476.035 25.4 478.275 26.3333 480.675 27.24C483.128 28.0933 485.368 29.2133 487.395 30.6C489.475 31.9333 491.208 33.6933 492.595 35.88C493.981 38.0666 494.675 40.9466 494.675 44.52C494.675 49.48 493.208 53.3733 490.275 56.2C487.395 58.9733 483.315 60.36 478.035 60.36Z" fill="black" fill-opacity="0.941176"/>
<path d="M544.113 54.68L550.193 54.04L539.313 34.68H532.273V53.08L539.713 54.68V59.48H516.913V54.68L524.353 53.08V8.27998L516.913 6.67998V1.87998H541.713C545.446 1.87998 548.433 2.33331 550.673 3.23998C552.966 4.09331 554.726 5.26664 555.953 6.75998C557.233 8.19998 558.086 9.93331 558.513 11.96C558.94 13.9333 559.153 16.04 559.153 18.28C559.153 20.2 558.993 22.04 558.673 23.8C558.406 25.56 557.846 27.1333 556.993 28.52C556.14 29.9066 554.94 31.1066 553.393 32.12C551.846 33.1333 549.846 33.8533 547.393 34.28L558.833 53.08L563.953 54.68V59.48H544.113V54.68ZM540.433 28.68C542.78 28.68 544.646 28.44 546.033 27.96C547.473 27.4266 548.566 26.7333 549.313 25.88C550.06 24.9733 550.54 23.9066 550.753 22.68C550.966 21.4 551.073 20.04 551.073 18.6C551.073 16.9466 550.966 15.48 550.753 14.2C550.54 12.8666 550.06 11.7466 549.313 10.84C548.566 9.87998 547.473 9.15998 546.033 8.67998C544.646 8.14664 542.78 7.87998 540.433 7.87998H532.273V28.68H540.433ZM590.416 6.67998L582.976 8.27998V53.08L590.416 54.68V59.48H567.616V54.68L575.056 53.08V8.27998L567.616 6.67998V1.87998H590.416V6.67998ZM616.863 60.36C614.783 60.36 613.05 60.1466 611.663 59.72C610.33 59.2933 609.236 58.7333 608.383 58.04C607.53 57.3466 606.863 56.5466 606.383 55.64C605.903 54.7333 605.503 53.8266 605.183 52.92H604.703L603.103 59.48H596.703V41.72H604.703C604.703 43.9066 604.97 45.7733 605.503 47.32C606.09 48.8133 606.863 50.04 607.823 51C608.783 51.96 609.93 52.68 611.263 53.16C612.65 53.5866 614.143 53.8 615.743 53.8C617.503 53.8 618.996 53.5866 620.223 53.16C621.45 52.68 622.463 52.04 623.263 51.24C624.063 50.44 624.623 49.5066 624.943 48.44C625.316 47.3733 625.503 46.2533 625.503 45.08C625.503 42.52 624.81 40.52 623.423 39.08C622.036 37.5866 620.303 36.3333 618.223 35.32C616.196 34.3066 613.956 33.4 611.503 32.6C609.103 31.7466 606.863 30.68 604.783 29.4C602.756 28.0666 601.05 26.36 599.663 24.28C598.276 22.2 597.583 19.4266 597.583 15.96C597.583 13.4533 597.983 11.2666 598.783 9.39998C599.583 7.53331 600.65 5.98665 601.983 4.75998C603.37 3.47998 604.996 2.54665 606.863 1.95998C608.73 1.31998 610.703 0.99998 612.783 0.99998C614.17 0.99998 615.476 1.15998 616.703 1.47998C617.983 1.74664 619.13 2.19998 620.143 2.83998C621.21 3.47998 622.09 4.33331 622.783 5.39998C623.476 6.46664 623.956 7.77331 624.223 9.31998H624.623L626.223 1.87998H632.543V21.48H624.623C624.623 19.88 624.436 18.2533 624.063 16.6C623.69 14.9466 623.076 13.4533 622.223 12.12C621.37 10.7866 620.276 9.69331 618.943 8.83998C617.663 7.98664 616.09 7.55998 614.223 7.55998C613.05 7.55998 611.93 7.74664 610.863 8.11998C609.85 8.49331 608.943 9.02664 608.143 9.71998C607.343 10.4133 606.703 11.2666 606.223 12.28C605.796 13.24 605.583 14.36 605.583 15.64C605.583 17.9333 606.276 19.7466 607.663 21.08C609.05 22.36 610.756 23.48 612.783 24.44C614.863 25.4 617.103 26.3333 619.503 27.24C621.956 28.0933 624.196 29.2133 626.223 30.6C628.303 31.9333 630.036 33.6933 631.423 35.88C632.81 38.0666 633.503 40.9466 633.503 44.52C633.503 49.48 632.036 53.3733 629.103 56.2C626.223 58.9733 622.143 60.36 616.863 60.36ZM639.882 54.68L647.322 53.08V8.27998L639.882 6.67998V1.87998H678.282V19.48H671.962L670.922 7.87998H655.242V27H670.282V33.64H655.242V53.48H670.842L671.962 40.68H678.282V59.48H639.882V54.68Z" fill="black" fill-opacity="0.937255"/>
<path d="M15.3198 8.43998L15.8745 9.27203L15.884 9.26573L15.8933 9.25921L15.3198 8.43998ZM11.5598 13.16L10.6431 12.7604L10.6388 12.7704L10.6347 12.7804L11.5598 13.16ZM9.71982 40.6L8.72393 40.6905L8.72484 40.7005L8.72594 40.7104L9.71982 40.6ZM11.5598 48.04L10.6431 48.4396V48.4396L11.5598 48.04ZM15.4798 52.92L14.9133 53.744L14.9222 53.7501L14.9312 53.756L15.4798 52.92ZM28.1198 53.4L27.6604 52.5118L27.654 52.5151L27.6476 52.5185L28.1198 53.4ZM31.7198 50.2L30.8828 49.6527L30.8776 49.6609L31.7198 50.2ZM33.5598 45.4L32.5792 45.2039L32.577 45.215L32.575 45.2262L33.5598 45.4ZM34.1198 39.48V38.48H33.1198V39.48H34.1198ZM42.1198 39.48H43.1198V38.48H42.1198V39.48ZM41.0798 47.72L42.0437 47.9866L42.0451 47.9814L41.0798 47.72ZM37.6398 54.36L36.8716 53.7198L36.8698 53.722L37.6398 54.36ZM31.3998 58.76L31.0219 57.8341L31.0152 57.8369L31.3998 58.76ZM11.2398 58.12L11.7211 57.2434V57.2434L11.2398 58.12ZM4.83982 51.8L3.96325 52.2812L3.96684 52.2878L3.97053 52.2943L4.83982 51.8ZM1.79982 42.04L2.79005 41.9005V41.9005L1.79982 42.04ZM1.63982 18.44L0.647313 18.3178V18.3178L1.63982 18.44ZM4.35982 9.39998L3.48396 8.91736L3.48053 8.92369L4.35982 9.39998ZM10.5198 3.23998L11.0084 4.11248V4.11248L10.5198 3.23998ZM25.4798 1.39998L25.2837 2.38056L25.3057 2.38495L25.3278 2.38835L25.4798 1.39998ZM29.1598 2.67998L28.6453 3.53747L28.6702 3.55237L28.6958 3.56581L29.1598 2.67998ZM31.8798 5.23998L31.0296 5.76633L31.0444 5.79033L31.0606 5.81344L31.8798 5.23998ZM33.4798 9.31998L32.498 9.51L32.6548 10.32H33.4798V9.31998ZM33.8798 9.31998V10.32H34.6876L34.8575 9.53022L33.8798 9.31998ZM35.4798 1.87998V0.879978H34.672L34.5022 1.66973L35.4798 1.87998ZM41.7998 1.87998H42.7998V0.879978H41.7998V1.87998ZM41.7998 21.48V22.48H42.7998V21.48H41.7998ZM33.8798 21.48H32.8798V22.48H33.8798V21.48ZM30.8398 10.76L30.036 11.3548L30.0427 11.3639L30.0496 11.3728L30.8398 10.76ZM21.6398 6.75998V5.75998C18.8896 5.75998 16.5628 6.34922 14.7464 7.62075L15.3198 8.43998L15.8933 9.25921C17.2768 8.29073 19.1634 7.75998 21.6398 7.75998V6.75998ZM15.3198 8.43998L14.7651 7.60793C12.9786 8.79896 11.6124 10.5367 10.6431 12.7604L11.5598 13.16L12.4765 13.5596C13.3205 11.6233 14.4611 10.2143 15.8745 9.27203L15.3198 8.43998ZM11.5598 13.16L10.6347 12.7804C9.73581 14.9714 9.13242 17.6023 8.80552 20.6534L9.79982 20.76L10.7941 20.8665C11.1072 17.9443 11.6772 15.5086 12.485 13.5395L11.5598 13.16ZM9.79982 20.76L8.80552 20.6534C8.4809 23.6832 8.31982 27.1064 8.31982 30.92H9.31982H10.3198C10.3198 27.1602 10.4788 23.8101 10.7941 20.8665L9.79982 20.76ZM9.31982 30.92H8.31982C8.31982 34.4646 8.45406 37.722 8.72393 40.6905L9.71982 40.6L10.7157 40.5094C10.4523 37.6113 10.3198 34.4154 10.3198 30.92H9.31982ZM9.71982 40.6L8.72594 40.7104C9.05411 43.6639 9.68706 46.2462 10.6431 48.4396L11.5598 48.04L12.4765 47.6404C11.6193 45.6737 11.0255 43.296 10.7137 40.4895L9.71982 40.6ZM11.5598 48.04L10.6431 48.4396C11.6171 50.674 13.0379 52.4547 14.9133 53.744L15.4798 52.92L16.0464 52.0959C14.5084 51.0386 13.3159 49.5659 12.4765 47.6404L11.5598 48.04ZM15.4798 52.92L14.9312 53.756C16.8523 55.0168 19.3306 55.6 22.2798 55.6V54.6V53.6C19.5757 53.6 17.5206 53.0632 16.0285 52.0839L15.4798 52.92ZM22.2798 54.6V55.6C24.78 55.6 26.9056 55.1849 28.592 54.2815L28.1198 53.4L27.6476 52.5185C26.3474 53.215 24.5796 53.6 22.2798 53.6V54.6ZM28.1198 53.4L28.5792 54.2882C30.266 53.4158 31.6048 52.2349 32.5621 50.739L31.7198 50.2L30.8776 49.6609C30.1282 50.8318 29.067 51.7842 27.6604 52.5118L28.1198 53.4ZM31.7198 50.2L32.5568 50.7472C33.5453 49.2354 34.2037 47.5054 34.5446 45.5738L33.5598 45.4L32.575 45.2262C32.2759 46.9212 31.7077 48.3913 30.8829 49.6527L31.7198 50.2ZM33.5598 45.4L34.5404 45.5961C34.9278 43.6592 35.1198 41.6198 35.1198 39.48H34.1198H33.1198C33.1198 41.5001 32.9385 43.4074 32.5792 45.2039L33.5598 45.4ZM34.1198 39.48V40.48H42.1198V39.48V38.48H34.1198V39.48ZM42.1198 39.48H41.1198C41.1198 42.3343 40.7826 44.9923 40.1146 47.4586L41.0798 47.72L42.0451 47.9814C42.7638 45.3277 43.1198 42.4924 43.1198 39.48H42.1198ZM41.0798 47.72L40.116 47.4534C39.459 49.8287 38.3769 51.9135 36.8716 53.7198L37.6398 54.36L38.408 55.0002C40.1028 52.9665 41.314 50.6246 42.0436 47.9866L41.0798 47.72ZM37.6398 54.36L36.8698 53.722C35.4442 55.4425 33.508 56.8194 31.0219 57.8341L31.3998 58.76L31.7777 59.6858C34.5183 58.5672 36.7421 57.0108 38.4098 54.998L37.6398 54.36ZM31.3998 58.76L31.0152 57.8369C28.6114 58.8385 25.6042 59.36 21.9598 59.36V60.36V61.36C25.7821 61.36 29.0683 60.8148 31.7844 59.6831L31.3998 58.76ZM21.9598 60.36V59.36C17.634 59.36 14.244 58.6285 11.7211 57.2434L11.2398 58.12L10.7586 58.9966C13.6756 60.5981 17.4324 61.36 21.9598 61.36V60.36ZM11.2398 58.12L11.7211 57.2434C9.16474 55.8399 7.16511 53.8662 5.70912 51.3057L4.83982 51.8L3.97053 52.2943C5.60787 55.1737 7.87491 57.4134 10.7586 58.9966L11.2398 58.12ZM4.83982 51.8L5.7164 51.3187C4.29311 48.7263 3.31029 45.5942 2.79005 41.9005L1.79982 42.04L0.809598 42.1795C1.35602 46.0591 2.39987 49.4337 3.96325 52.2812L4.83982 51.8ZM1.79982 42.04L2.79005 41.9005C2.26436 38.1681 1.99982 34.0289 1.99982 29.48H0.999825H-0.000175476C-0.000175476 34.1044 0.268626 38.3385 0.809598 42.1795L1.79982 42.04ZM0.999825 29.48H1.99982C1.99982 25.6229 2.21118 21.984 2.63234 18.5621L1.63982 18.44L0.647313 18.3178C0.215131 21.8293 -0.000175476 25.5504 -0.000175476 29.48H0.999825ZM1.63982 18.44L2.63234 18.5621C3.04671 15.1954 3.92259 12.3068 5.23912 9.87626L4.35982 9.39998L3.48053 8.92369C2.02373 11.6132 1.08628 14.7513 0.647313 18.3178L1.63982 18.44ZM4.35982 9.39998L5.23566 9.88258C6.58325 7.43697 8.50054 5.5169 11.0084 4.11248L10.5198 3.23998L10.0312 2.36747C7.20577 3.94972 5.0164 6.13632 3.48399 8.91737L4.35982 9.39998ZM10.5198 3.23998L11.0084 4.11248C13.4737 2.73195 16.8325 1.99998 21.1598 1.99998V0.999981V-1.90735e-05C16.6339 -1.90735e-05 12.8993 0.761349 10.0312 2.36747L10.5198 3.23998ZM21.1598 0.999981V1.99998C22.6494 1.99998 24.023 2.12843 25.2837 2.38056L25.4798 1.39998L25.6759 0.419399C24.2699 0.138199 22.7635 -1.90735e-05 21.1598 -1.90735e-05V0.999981ZM25.4798 1.39998L25.3278 2.38835C26.6026 2.58448 27.7032 2.97218 28.6453 3.53747L29.1598 2.67998L29.6743 1.82248C28.4831 1.10777 27.1304 0.642143 25.6319 0.411606L25.4798 1.39998ZM29.1598 2.67998L28.6958 3.56581C29.6504 4.06583 30.4264 4.79192 31.0296 5.76633L31.8798 5.23998L32.7301 4.71362C31.9466 3.44803 30.9092 2.46745 29.6238 1.79414L29.1598 2.67998ZM31.8798 5.23998L31.0606 5.81344C31.7068 6.73666 32.1972 7.9557 32.498 9.51L33.4798 9.31998L34.4616 9.12996C34.1224 7.37758 33.5461 5.87663 32.6991 4.66652L31.8798 5.23998ZM33.4798 9.31998V10.32H33.8798V9.31998V8.31998H33.4798V9.31998ZM33.8798 9.31998L34.8575 9.53022L36.4575 2.09023L35.4798 1.87998L34.5022 1.66973L32.9022 9.10973L33.8798 9.31998ZM35.4798 1.87998V2.87998H41.7998V1.87998V0.879978H35.4798V1.87998ZM41.7998 1.87998H40.7998V21.48H41.7998H42.7998V1.87998H41.7998ZM41.7998 21.48V20.48H33.8798V21.48V22.48H41.7998V21.48ZM33.8798 21.48H34.8798C34.8798 16.806 33.8353 12.9907 31.63 10.1472L30.8398 10.76L30.0496 11.3728C31.8977 13.7559 32.8798 17.0873 32.8798 21.48H33.8798ZM30.8398 10.76L31.6437 10.1651C29.4342 7.17941 26.0274 5.75998 21.6398 5.75998V6.75998V7.75998C25.5722 7.75998 28.2988 9.00722 30.036 11.3548L30.8398 10.76ZM75.4411 54.68L75.3364 53.6855L74.4411 53.7797V54.68H75.4411ZM81.5211 54.04L81.6258 55.0345L83.1376 54.8753L82.3928 53.5501L81.5211 54.04ZM70.6411 34.68L71.5128 34.1901L71.2262 33.68H70.6411V34.68ZM63.6011 34.68V33.68H62.6011V34.68H63.6011ZM63.6011 53.08H62.6011V53.8878L63.3908 54.0576L63.6011 53.08ZM71.0411 54.68H72.0411V53.8722L71.2513 53.7023L71.0411 54.68ZM71.0411 59.48V60.48H72.0411V59.48H71.0411ZM48.2411 59.48H47.2411V60.48H48.2411V59.48ZM48.2411 54.68L48.0308 53.7023L47.2411 53.8722V54.68H48.2411ZM55.6811 53.08L55.8913 54.0576L56.6811 53.8878V53.08H55.6811ZM55.6811 8.27998H56.6811V7.47217L55.8913 7.30233L55.6811 8.27998ZM48.2411 6.67998H47.2411V7.48779L48.0308 7.65763L48.2411 6.67998ZM48.2411 1.87998V0.879978H47.2411V1.87998H48.2411ZM82.0011 3.23998L81.6259 4.16693L81.639 4.17225L81.6523 4.1772L82.0011 3.23998ZM87.2811 6.75998L86.5083 7.39472L86.5207 7.40977L86.5337 7.42434L87.2811 6.75998ZM89.8411 11.96L88.8625 12.166L88.8637 12.1713L89.8411 11.96ZM90.0011 23.8L89.0172 23.6211L89.0146 23.6356L89.0124 23.6502L90.0011 23.8ZM88.3211 28.52L89.1727 29.0441H89.1727L88.3211 28.52ZM84.7211 32.12L85.2691 32.9564V32.9564L84.7211 32.12ZM78.7211 34.28L78.5497 33.2948L77.104 33.5462L77.8668 34.7998L78.7211 34.28ZM90.1611 53.08L89.3068 53.5998L89.5029 53.922L89.8628 54.0345L90.1611 53.08ZM95.2811 54.68H96.2811V53.9448L95.5794 53.7255L95.2811 54.68ZM95.2811 59.48V60.48H96.2811V59.48H95.2811ZM75.4411 59.48H74.4411V60.48H75.4411V59.48ZM77.3611 27.96L77.6882 28.905L77.6983 28.9015L77.7084 28.8977L77.3611 27.96ZM80.6411 25.88L81.3937 26.5385L81.4035 26.5272L81.413 26.5157L80.6411 25.88ZM82.0811 22.68L83.0663 22.8513L83.0675 22.8444L82.0811 22.68ZM82.0811 14.2L81.0936 14.358L81.0947 14.3644L82.0811 14.2ZM80.6411 10.84L79.8517 11.4539L79.8603 11.4649L79.8691 11.4757L80.6411 10.84ZM77.3611 8.67998L77.0021 9.61332L77.0233 9.62148L77.0448 9.62866L77.3611 8.67998ZM63.6011 7.87998V6.87998H62.6011V7.87998H63.6011ZM63.6011 28.68H62.6011V29.68H63.6011V28.68ZM75.4411 54.68L75.5458 55.6745L81.6258 55.0345L81.5211 54.04L81.4164 53.0455L75.3364 53.6855L75.4411 54.68ZM81.5211 54.04L82.3928 53.5501L71.5128 34.1901L70.6411 34.68L69.7693 35.1699L80.6493 54.5299L81.5211 54.04ZM70.6411 34.68V33.68H63.6011V34.68V35.68H70.6411V34.68ZM63.6011 34.68H62.6011V53.08H63.6011H64.6011V34.68H63.6011ZM63.6011 53.08L63.3908 54.0576L70.8308 55.6576L71.0411 54.68L71.2513 53.7023L63.8113 52.1023L63.6011 53.08ZM71.0411 54.68H70.0411V59.48H71.0411H72.0411V54.68H71.0411ZM71.0411 59.48V58.48H48.2411V59.48V60.48H71.0411V59.48ZM48.2411 59.48H49.2411V54.68H48.2411H47.2411V59.48H48.2411ZM48.2411 54.68L48.4513 55.6576L55.8913 54.0576L55.6811 53.08L55.4708 52.1023L48.0308 53.7023L48.2411 54.68ZM55.6811 53.08H56.6811V8.27998H55.6811H54.6811V53.08H55.6811ZM55.6811 8.27998L55.8913 7.30233L48.4513 5.70233L48.2411 6.67998L48.0308 7.65763L55.4708 9.25763L55.6811 8.27998ZM48.2411 6.67998H49.2411V1.87998H48.2411H47.2411V6.67998H48.2411ZM48.2411 1.87998V2.87998H73.0411V1.87998V0.879978H48.2411V1.87998ZM73.0411 1.87998V2.87998C76.7085 2.87998 79.5519 3.32747 81.6259 4.16693L82.0011 3.23998L82.3763 2.31303C79.9702 1.33916 76.8404 0.879978 73.0411 0.879978V1.87998ZM82.0011 3.23998L81.6523 4.1772C83.8235 4.98507 85.4199 6.0697 86.5083 7.39472L87.2811 6.75998L88.0538 6.12524C86.6889 4.46359 84.7653 3.20155 82.3498 2.30276L82.0011 3.23998ZM87.2811 6.75998L86.5337 7.42434C87.6894 8.72456 88.4689 10.2964 88.8625 12.166L89.8411 11.96L90.8196 11.754C90.3599 9.57019 89.4327 7.6754 88.0285 6.09562L87.2811 6.75998ZM89.8411 11.96L88.8637 12.1713C89.2738 14.0681 89.4811 16.1034 89.4811 18.28H90.4811H91.4811C91.4811 15.9766 91.2617 13.7985 90.8185 11.7486L89.8411 11.96ZM90.4811 18.28H89.4811C89.4811 20.1443 89.3257 21.9242 89.0172 23.6211L90.0011 23.8L90.9849 23.9789C91.3164 22.1557 91.4811 20.2556 91.4811 18.28H90.4811ZM90.0011 23.8L89.0124 23.6502C88.7639 25.2899 88.2461 26.7338 87.4694 27.9959L88.3211 28.52L89.1727 29.0441C90.1027 27.5328 90.7049 25.83 90.9898 23.9498L90.0011 23.8ZM88.3211 28.52L87.4694 27.9959C86.7029 29.2414 85.6135 30.3398 84.173 31.2835L84.7211 32.12L85.2691 32.9564C86.922 31.8735 88.2325 30.5719 89.1727 29.0441L88.3211 28.52ZM84.7211 32.12L84.173 31.2835C82.7727 32.201 80.9127 32.8838 78.5497 33.2948L78.7211 34.28L78.8924 35.2652C81.4362 34.8228 83.5761 34.0656 85.2691 32.9564L84.7211 32.12ZM78.7211 34.28L77.8668 34.7998L89.3068 53.5998L90.1611 53.08L91.0154 52.5602L79.5753 33.7601L78.7211 34.28ZM90.1611 53.08L89.8628 54.0345L94.9828 55.6345L95.2811 54.68L95.5794 53.7255L90.4594 52.1255L90.1611 53.08ZM95.2811 54.68H94.2811V59.48H95.2811H96.2811V54.68H95.2811ZM95.2811 59.48V58.48H75.4411V59.48V60.48H95.2811V59.48ZM75.4411 59.48H76.4411V54.68H75.4411H74.4411V59.48H75.4411ZM71.7611 28.68V29.68C74.1607 29.68 76.1525 29.4365 77.6882 28.905L77.3611 27.96L77.034 27.015C75.7963 27.4434 74.0548 27.68 71.7611 27.68V28.68ZM77.3611 27.96L77.7084 28.8977C79.2517 28.3261 80.5053 27.5538 81.3937 26.5385L80.6411 25.88L79.8885 25.2215C79.2835 25.9129 78.3505 26.5272 77.0138 27.0222L77.3611 27.96ZM80.6411 25.88L81.413 26.5157C82.2764 25.4672 82.8251 24.238 83.0663 22.8513L82.0811 22.68L81.0959 22.5086C80.9104 23.5753 80.499 24.4794 79.8691 25.2443L80.6411 25.88ZM82.0811 22.68L83.0675 22.8444C83.2908 21.5045 83.4011 20.0892 83.4011 18.6H82.4011H81.4011C81.4011 19.9908 81.298 21.2954 81.0947 22.5156L82.0811 22.68ZM82.4011 18.6H83.4011C83.4011 16.9057 83.2919 15.3823 83.0675 14.0356L82.0811 14.2L81.0947 14.3644C81.2969 15.5777 81.4011 16.9876 81.4011 18.6H82.4011ZM82.0811 14.2L83.0685 14.042C82.8314 12.5598 82.2887 11.2676 81.413 10.2043L80.6411 10.84L79.8691 11.4757C80.4868 12.2257 80.9041 13.1735 81.0936 14.358L82.0811 14.2ZM80.6411 10.84L81.4304 10.226C80.5356 9.0755 79.258 8.2582 77.6773 7.73129L77.3611 8.67998L77.0448 9.62866C78.3441 10.0618 79.2533 10.6845 79.8517 11.4539L80.6411 10.84ZM77.3611 8.67998L77.7201 7.74663C76.172 7.15123 74.1676 6.87998 71.7611 6.87998V7.87998V8.87998C74.0479 8.87998 75.7768 9.14206 77.0021 9.61332L77.3611 8.67998ZM71.7611 7.87998V6.87998H63.6011V7.87998V8.87998H71.7611V7.87998ZM63.6011 7.87998H62.6011V28.68H63.6011H64.6011V7.87998H63.6011ZM63.6011 28.68V29.68H71.7611V28.68V27.68H63.6011V28.68ZM121.744 6.67998L121.954 7.65763L122.744 7.48779V6.67998H121.744ZM114.304 8.27998L114.094 7.30233L113.304 7.47217V8.27998H114.304ZM114.304 53.08H113.304V53.8878L114.094 54.0576L114.304 53.08ZM121.744 54.68H122.744V53.8722L121.954 53.7023L121.744 54.68ZM121.744 59.48V60.48H122.744V59.48H121.744ZM98.9442 59.48H97.9442V60.48H98.9442V59.48ZM98.9442 54.68L98.734 53.7023L97.9442 53.8722V54.68H98.9442ZM106.384 53.08L106.594 54.0576L107.384 53.8878V53.08H106.384ZM106.384 8.27998H107.384V7.47217L106.594 7.30233L106.384 8.27998ZM98.9442 6.67998H97.9442V7.48779L98.734 7.65763L98.9442 6.67998ZM98.9442 1.87998V0.879978H97.9442V1.87998H98.9442ZM121.744 1.87998H122.744V0.879978H121.744V1.87998ZM121.744 6.67998L121.534 5.70233L114.094 7.30233L114.304 8.27998L114.514 9.25763L121.954 7.65763L121.744 6.67998ZM114.304 8.27998H113.304V53.08H114.304H115.304V8.27998H114.304ZM114.304 53.08L114.094 54.0576L121.534 55.6576L121.744 54.68L121.954 53.7023L114.514 52.1023L114.304 53.08ZM121.744 54.68H120.744V59.48H121.744H122.744V54.68H121.744ZM121.744 59.48V58.48H98.9442V59.48V60.48H121.744V59.48ZM98.9442 59.48H99.9442V54.68H98.9442H97.9442V59.48H98.9442ZM98.9442 54.68L99.1544 55.6576L106.594 54.0576L106.384 53.08L106.174 52.1023L98.734 53.7023L98.9442 54.68ZM106.384 53.08H107.384V8.27998H106.384H105.384V53.08H106.384ZM106.384 8.27998L106.594 7.30233L99.1544 5.70233L98.9442 6.67998L98.734 7.65763L106.174 9.25763L106.384 8.27998ZM98.9442 6.67998H99.9442V1.87998H98.9442H97.9442V6.67998H98.9442ZM98.9442 1.87998V2.87998H121.744V1.87998V0.879978H98.9442V1.87998ZM121.744 1.87998H120.744V6.67998H121.744H122.744V1.87998H121.744ZM142.351 7.87998L143.321 7.63638L141.351 7.87998H142.351ZM142.351 53.08H141.351V53.8429L142.087 54.0444L142.351 53.08ZM148.191 54.68H149.191V53.9171L148.455 53.7155L148.191 54.68ZM148.191 59.48V60.48H149.191V59.48H148.191ZM126.991 59.48H125.991V60.48H126.991V59.48ZM126.991 54.68L126.781 53.7023L125.991 53.8722V54.68H126.991ZM134.431 53.08L134.641 54.0576L135.431 53.8878V53.08H134.431ZM134.431 8.27998H135.431V7.47217L134.641 7.30233L134.431 8.27998ZM126.991 6.67998H125.991V7.48779L126.781 7.65763L126.991 6.67998ZM126.991 1.87998V0.879978H125.991V1.87998H126.991ZM148.191 1.87998L149.16 1.63311L148.968 0.879978H148.191V1.87998ZM161.071 52.44L160.102 52.6868L162.04 52.6883L161.071 52.44ZM174.031 1.87998V0.879978H173.255L173.062 1.63168L174.031 1.87998ZM195.231 1.87998H196.231V0.879978H195.231V1.87998ZM195.231 6.67998L195.441 7.65763L196.231 7.48779V6.67998H195.231ZM187.791 8.27998L187.581 7.30233L186.791 7.47217V8.27998H187.791ZM187.791 53.08H186.791V53.8878L187.581 54.0576L187.791 53.08ZM195.231 54.68H196.231V53.8722L195.441 53.7023L195.231 54.68ZM195.231 59.48V60.48H196.231V59.48H195.231ZM174.031 59.48H173.031V60.48H174.031V59.48ZM174.031 54.68L173.767 53.7155L173.031 53.9171V54.68H174.031ZM179.871 53.08L180.135 54.0444L180.871 53.8429V53.08H179.871ZM179.871 7.87998H180.871L178.902 7.63497L179.871 7.87998ZM166.831 59.48V60.48H167.61L167.801 59.725L166.831 59.48ZM155.311 59.48L154.341 59.7236L154.531 60.48H155.311V59.48ZM142.351 7.87998H141.351V53.08H142.351H143.351V7.87998H142.351ZM142.351 53.08L142.087 54.0444L147.927 55.6444L148.191 54.68L148.455 53.7155L142.615 52.1155L142.351 53.08ZM148.191 54.68H147.191V59.48H148.191H149.191V54.68H148.191ZM148.191 59.48V58.48H126.991V59.48V60.48H148.191V59.48ZM126.991 59.48H127.991V54.68H126.991H125.991V59.48H126.991ZM126.991 54.68L127.201 55.6576L134.641 54.0576L134.431 53.08L134.221 52.1023L126.781 53.7023L126.991 54.68ZM134.431 53.08H135.431V8.27998H134.431H133.431V53.08H134.431ZM134.431 8.27998L134.641 7.30233L127.201 5.70233L126.991 6.67998L126.781 7.65763L134.221 9.25763L134.431 8.27998ZM126.991 6.67998H127.991V1.87998H126.991H125.991V6.67998H126.991ZM126.991 1.87998V2.87998H148.191V1.87998V0.879978H126.991V1.87998ZM148.191 1.87998L147.222 2.12684L160.102 52.6868L161.071 52.44L162.04 52.1931L149.16 1.63311L148.191 1.87998ZM161.071 52.44L162.04 52.6883L175 2.12828L174.031 1.87998L173.062 1.63168L160.102 52.1917L161.071 52.44ZM174.031 1.87998V2.87998H195.231V1.87998V0.879978H174.031V1.87998ZM195.231 1.87998H194.231V6.67998H195.231H196.231V1.87998H195.231ZM195.231 6.67998L195.021 5.70233L187.581 7.30233L187.791 8.27998L188.001 9.25763L195.441 7.65763L195.231 6.67998ZM187.791 8.27998H186.791V53.08H187.791H188.791V8.27998H187.791ZM187.791 53.08L187.581 54.0576L195.021 55.6576L195.231 54.68L195.441 53.7023L188.001 52.1023L187.791 53.08ZM195.231 54.68H194.231V59.48H195.231H196.231V54.68H195.231ZM195.231 59.48V58.48H174.031V59.48V60.48H195.231V59.48ZM174.031 59.48H175.031V54.68H174.031H173.031V59.48H174.031ZM174.031 54.68L174.295 55.6444L180.135 54.0444L179.871 53.08L179.607 52.1155L173.767 53.7155L174.031 54.68ZM179.871 53.08H180.871V7.87998H179.871H178.871V53.08H179.871ZM179.871 7.87998L178.902 7.63497L165.862 59.235L166.831 59.48L167.801 59.725L180.841 8.12499L179.871 7.87998ZM166.831 59.48V58.48H155.311V59.48V60.48H166.831V59.48ZM155.311 59.48L156.281 59.2364L143.321 7.63638L142.351 7.87998L141.381 8.12357L154.341 59.7236L155.311 59.48ZM200.507 54.68L200.296 53.7023L199.507 53.8722V54.68H200.507ZM207.947 53.08L208.157 54.0576L208.947 53.8878V53.08H207.947ZM207.947 8.27998H208.947V7.47217L208.157 7.30233L207.947 8.27998ZM200.507 6.67998H199.507V7.48779L200.296 7.65763L200.507 6.67998ZM200.507 1.87998V0.879978H199.507V1.87998H200.507ZM238.907 1.87998H239.907V0.879978H238.907V1.87998ZM238.907 19.48V20.48H239.907V19.48H238.907ZM232.587 19.48L231.591 19.5693L231.672 20.48H232.587V19.48ZM231.547 7.87998L232.543 7.79068L232.461 6.87998H231.547V7.87998ZM215.867 7.87998V6.87998H214.867V7.87998H215.867ZM215.867 27H214.867V28H215.867V27ZM230.907 27H231.907V26H230.907V27ZM230.907 33.64V34.64H231.907V33.64H230.907ZM215.867 33.64V32.64H214.867V33.64H215.867ZM215.867 53.48H214.867V54.48H215.867V53.48ZM231.467 53.48V54.48H232.383L232.463 53.5671L231.467 53.48ZM232.587 40.68V39.68H231.67L231.591 40.5928L232.587 40.68ZM238.907 40.68H239.907V39.68H238.907V40.68ZM238.907 59.48V60.48H239.907V59.48H238.907ZM200.507 59.48H199.507V60.48H200.507V59.48ZM200.507 54.68L200.717 55.6576L208.157 54.0576L207.947 53.08L207.736 52.1023L200.296 53.7023L200.507 54.68ZM207.947 53.08H208.947V8.27998H207.947H206.947V53.08H207.947ZM207.947 8.27998L208.157 7.30233L200.717 5.70233L200.507 6.67998L200.296 7.65763L207.736 9.25763L207.947 8.27998ZM200.507 6.67998H201.507V1.87998H200.507H199.507V6.67998H200.507ZM200.507 1.87998V2.87998H238.907V1.87998V0.879978H200.507V1.87998ZM238.907 1.87998H237.907V19.48H238.907H239.907V1.87998H238.907ZM238.907 19.48V18.48H232.587V19.48V20.48H238.907V19.48ZM232.587 19.48L233.583 19.3907L232.543 7.79068L231.547 7.87998L230.551 7.96927L231.591 19.5693L232.587 19.48ZM231.547 7.87998V6.87998H215.867V7.87998V8.87998H231.547V7.87998ZM215.867 7.87998H214.867V27H215.867H216.867V7.87998H215.867ZM215.867 27V28H230.907V27V26H215.867V27ZM230.907 27H229.907V33.64H230.907H231.907V27H230.907ZM230.907 33.64V32.64H215.867V33.64V34.64H230.907V33.64ZM215.867 33.64H214.867V53.48H215.867H216.867V33.64H215.867ZM215.867 53.48V54.48H231.467V53.48V52.48H215.867V53.48ZM231.467 53.48L232.463 53.5671L233.583 40.7671L232.587 40.68L231.591 40.5928L230.471 53.3928L231.467 53.48ZM232.587 40.68V41.68H238.907V40.68V39.68H232.587V40.68ZM238.907 40.68H237.907V59.48H238.907H239.907V40.68H238.907ZM238.907 59.48V58.48H200.507V59.48V60.48H238.907V59.48ZM200.507 59.48H201.507V54.68H200.507H199.507V59.48H200.507ZM288.8 54.68L288.696 53.6855L287.8 53.7797V54.68H288.8ZM294.88 54.04L294.985 55.0345L296.497 54.8753L295.752 53.5501L294.88 54.04ZM284 34.68L284.872 34.1901L284.586 33.68H284V34.68ZM276.96 34.68V33.68H275.96V34.68H276.96ZM276.96 53.08H275.96V53.8878L276.75 54.0576L276.96 53.08ZM284.4 54.68H285.4V53.8722L284.611 53.7023L284.4 54.68ZM284.4 59.48V60.48H285.4V59.48H284.4ZM261.6 59.48H260.6V60.48H261.6V59.48ZM261.6 54.68L261.39 53.7023L260.6 53.8722V54.68H261.6ZM269.04 53.08L269.251 54.0576L270.04 53.8878V53.08H269.04ZM269.04 8.27998H270.04V7.47217L269.251 7.30233L269.04 8.27998ZM261.6 6.67998H260.6V7.48779L261.39 7.65763L261.6 6.67998ZM261.6 1.87998V0.879978H260.6V1.87998H261.6ZM295.36 3.23998L294.985 4.16693L294.998 4.17225L295.012 4.1772L295.36 3.23998ZM300.64 6.75998L299.868 7.39472L299.88 7.40977L299.893 7.42434L300.64 6.75998ZM303.2 11.96L302.222 12.166L302.223 12.1713L303.2 11.96ZM303.36 23.8L302.377 23.6211L302.374 23.6356L302.372 23.6502L303.36 23.8ZM301.68 28.52L302.532 29.0441V29.0441L301.68 28.52ZM298.08 32.12L298.628 32.9564V32.9564L298.08 32.12ZM292.08 34.28L291.909 33.2948L290.463 33.5462L291.226 34.7998L292.08 34.28ZM303.52 53.08L302.666 53.5998L302.862 53.922L303.222 54.0345L303.52 53.08ZM308.64 54.68H309.64V53.9448L308.939 53.7255L308.64 54.68ZM308.64 59.48V60.48H309.64V59.48H308.64ZM288.8 59.48H287.8V60.48H288.8V59.48ZM290.72 27.96L291.048 28.905L291.058 28.9015L291.068 28.8977L290.72 27.96ZM294 25.88L294.753 26.5385L294.763 26.5272L294.772 26.5157L294 25.88ZM295.44 22.68L296.426 22.8513L296.427 22.8444L295.44 22.68ZM295.44 14.2L294.453 14.358L294.454 14.3644L295.44 14.2ZM294 10.84L293.211 11.4539L293.22 11.4649L293.229 11.4757L294 10.84ZM290.72 8.67998L290.361 9.61332L290.383 9.62148L290.404 9.62866L290.72 8.67998ZM276.96 7.87998V6.87998H275.96V7.87998H276.96ZM276.96 28.68H275.96V29.68H276.96V28.68ZM288.8 54.68L288.905 55.6745L294.985 55.0345L294.88 54.04L294.776 53.0455L288.696 53.6855L288.8 54.68ZM294.88 54.04L295.752 53.5501L284.872 34.1901L284 34.68L283.129 35.1699L294.009 54.5299L294.88 54.04ZM284 34.68V33.68H276.96V34.68V35.68H284V34.68ZM276.96 34.68H275.96V53.08H276.96H277.96V34.68H276.96ZM276.96 53.08L276.75 54.0576L284.19 55.6576L284.4 54.68L284.611 53.7023L277.171 52.1023L276.96 53.08ZM284.4 54.68H283.4V59.48H284.4H285.4V54.68H284.4ZM284.4 59.48V58.48H261.6V59.48V60.48H284.4V59.48ZM261.6 59.48H262.6V54.68H261.6H260.6V59.48H261.6ZM261.6 54.68L261.811 55.6576L269.251 54.0576L269.04 53.08L268.83 52.1023L261.39 53.7023L261.6 54.68ZM269.04 53.08H270.04V8.27998H269.04H268.04V53.08H269.04ZM269.04 8.27998L269.251 7.30233L261.811 5.70233L261.6 6.67998L261.39 7.65763L268.83 9.25763L269.04 8.27998ZM261.6 6.67998H262.6V1.87998H261.6H260.6V6.67998H261.6ZM261.6 1.87998V2.87998H286.4V1.87998V0.879978H261.6V1.87998ZM286.4 1.87998V2.87998C290.068 2.87998 292.911 3.32747 294.985 4.16693L295.36 3.23998L295.736 2.31303C293.33 1.33916 290.2 0.879978 286.4 0.879978V1.87998ZM295.36 3.23998L295.012 4.1772C297.183 4.98507 298.779 6.0697 299.868 7.39472L300.64 6.75998L301.413 6.12524C300.048 4.46359 298.125 3.20155 295.709 2.30276L295.36 3.23998ZM300.64 6.75998L299.893 7.42434C301.049 8.72456 301.828 10.2964 302.222 12.166L303.2 11.96L304.179 11.754C303.719 9.57019 302.792 7.6754 301.388 6.09562L300.64 6.75998ZM303.2 11.96L302.223 12.1713C302.633 14.0681 302.84 16.1034 302.84 18.28H303.84H304.84C304.84 15.9766 304.621 13.7985 304.178 11.7486L303.2 11.96ZM303.84 18.28H302.84C302.84 20.1443 302.685 21.9242 302.377 23.6211L303.36 23.8L304.344 23.9789C304.676 22.1557 304.84 20.2556 304.84 18.28H303.84ZM303.36 23.8L302.372 23.6502C302.123 25.2899 301.605 26.7338 300.829 27.9959L301.68 28.52L302.532 29.0441C303.462 27.5328 304.064 25.83 304.349 23.9498L303.36 23.8ZM301.68 28.52L300.829 27.9959C300.062 29.2414 298.973 30.3398 297.532 31.2835L298.08 32.12L298.628 32.9564C300.281 31.8735 301.592 30.5719 302.532 29.0441L301.68 28.52ZM298.08 32.12L297.532 31.2835C296.132 32.201 294.272 32.8838 291.909 33.2948L292.08 34.28L292.252 35.2652C294.796 34.8228 296.935 34.0656 298.628 32.9564L298.08 32.12ZM292.08 34.28L291.226 34.7998L302.666 53.5998L303.52 53.08L304.375 52.5602L292.935 33.7601L292.08 34.28ZM303.52 53.08L303.222 54.0345L308.342 55.6345L308.64 54.68L308.939 53.7255L303.819 52.1255L303.52 53.08ZM308.64 54.68H307.64V59.48H308.64H309.64V54.68H308.64ZM308.64 59.48V58.48H288.8V59.48V60.48H308.64V59.48ZM288.8 59.48H289.8V54.68H288.8H287.8V59.48H288.8ZM285.12 28.68V29.68C287.52 29.68 289.512 29.4365 291.048 28.905L290.72 27.96L290.393 27.015C289.156 27.4434 287.414 27.68 285.12 27.68V28.68ZM290.72 27.96L291.068 28.8977C292.611 28.3261 293.865 27.5538 294.753 26.5385L294 25.88L293.248 25.2215C292.643 25.9129 291.71 26.5272 290.373 27.0222L290.72 27.96ZM294 25.88L294.772 26.5157C295.636 25.4672 296.185 24.238 296.426 22.8513L295.44 22.68L294.455 22.5086C294.27 23.5753 293.858 24.4794 293.229 25.2443L294 25.88ZM295.44 22.68L296.427 22.8444C296.65 21.5045 296.76 20.0892 296.76 18.6H295.76H294.76C294.76 19.9908 294.657 21.2954 294.454 22.5156L295.44 22.68ZM295.76 18.6H296.76C296.76 16.9057 296.651 15.3823 296.427 14.0356L295.44 14.2L294.454 14.3644C294.656 15.5777 294.76 16.9876 294.76 18.6H295.76ZM295.44 14.2L296.428 14.042C296.191 12.5598 295.648 11.2676 294.772 10.2043L294 10.84L293.229 11.4757C293.846 12.2257 294.263 13.1735 294.453 14.358L295.44 14.2ZM294 10.84L294.79 10.226C293.895 9.0755 292.617 8.2582 291.037 7.73129L290.72 8.67998L290.404 9.62866C291.703 10.0618 292.613 10.6845 293.211 11.4539L294 10.84ZM290.72 8.67998L291.079 7.74663C289.531 7.15123 287.527 6.87998 285.12 6.87998V7.87998V8.87998C287.407 8.87998 289.136 9.14206 290.361 9.61332L290.72 8.67998ZM285.12 7.87998V6.87998H276.96V7.87998V8.87998H285.12V7.87998ZM276.96 7.87998H275.96V28.68H276.96H277.96V7.87998H276.96ZM276.96 28.68V29.68H285.12V28.68V27.68H276.96V28.68ZM330.624 1.87998V0.879978H329.884L329.667 1.58715L330.624 1.87998ZM341.824 1.87998L342.78 1.58715L342.563 0.879978H341.824V1.87998ZM357.504 53.08L356.547 53.3728L356.709 53.9012L357.243 54.0453L357.504 53.08ZM363.424 54.68H364.424V53.9144L363.684 53.7146L363.424 54.68ZM363.424 59.48V60.48H364.424V59.48H363.424ZM342.384 59.48H341.384V60.48H342.384V59.48ZM342.384 54.68L342.164 53.7043L341.384 53.8798V54.68H342.384ZM349.504 53.08L349.723 54.0556L350.765 53.8214L350.463 52.7969L349.504 53.08ZM345.584 39.8L346.543 39.5169L346.331 38.8H345.584V39.8ZM326.864 39.8V38.8H326.116L325.904 39.5169L326.864 39.8ZM322.944 53.08L321.984 52.7969L321.681 53.8239L322.727 54.0562L322.944 53.08ZM330.144 54.68H331.144V53.8778L330.361 53.7038L330.144 54.68ZM330.144 59.48V60.48H331.144V59.48H330.144ZM309.024 59.48H308.024V60.48H309.024V59.48ZM309.024 54.68L308.763 53.7146L308.024 53.9144V54.68H309.024ZM314.944 53.08L315.204 54.0453L315.738 53.9012L315.9 53.3728L314.944 53.08ZM328.784 33.16L327.825 32.876L327.444 34.16H328.784V33.16ZM343.584 33.16V34.16H344.919L344.543 32.8788L343.584 33.16ZM336.224 8.03998L337.183 7.75881L336.229 4.50115L335.265 7.756L336.224 8.03998ZM330.624 1.87998V2.87998H341.824V1.87998V0.879978H330.624V1.87998ZM341.824 1.87998L340.867 2.17281L356.547 53.3728L357.504 53.08L358.46 52.7872L342.78 1.58715L341.824 1.87998ZM357.504 53.08L357.243 54.0453L363.163 55.6453L363.424 54.68L363.684 53.7146L357.764 52.1146L357.504 53.08ZM363.424 54.68H362.424V59.48H363.424H364.424V54.68H363.424ZM363.424 59.48V58.48H342.384V59.48V60.48H363.424V59.48ZM342.384 59.48H343.384V54.68H342.384H341.384V59.48H342.384ZM342.384 54.68L342.603 55.6556L349.723 54.0556L349.504 53.08L349.284 52.1043L342.164 53.7043L342.384 54.68ZM349.504 53.08L350.463 52.7969L346.543 39.5169L345.584 39.8L344.624 40.0831L348.544 53.3631L349.504 53.08ZM345.584 39.8V38.8H326.864V39.8V40.8H345.584V39.8ZM326.864 39.8L325.904 39.5169L321.984 52.7969L322.944 53.08L323.903 53.3631L327.823 40.0831L326.864 39.8ZM322.944 53.08L322.727 54.0562L329.927 55.6562L330.144 54.68L330.361 53.7038L323.16 52.1038L322.944 53.08ZM330.144 54.68H329.144V59.48H330.144H331.144V54.68H330.144ZM330.144 59.48V58.48H309.024V59.48V60.48H330.144V59.48ZM309.024 59.48H310.024V54.68H309.024H308.024V59.48H309.024ZM309.024 54.68L309.284 55.6453L315.204 54.0453L314.944 53.08L314.683 52.1146L308.763 53.7146L309.024 54.68ZM314.944 53.08L315.9 53.3728L331.58 2.17281L330.624 1.87998L329.667 1.58715L313.987 52.7872L314.944 53.08ZM328.784 33.16V34.16H343.584V33.16V32.16H328.784V33.16ZM343.584 33.16L344.543 32.8788L337.183 7.75881L336.224 8.03998L335.264 8.32115L342.624 33.4412L343.584 33.16ZM336.224 8.03998L335.265 7.756L327.825 32.876L328.784 33.16L329.742 33.444L337.182 8.32396L336.224 8.03998ZM399.349 7.87998L400.345 7.78705L400.26 6.87998H399.349V7.87998ZM388.149 7.87998V6.87998H387.149V7.87998H388.149ZM388.149 53.08H387.149V53.9045L387.959 54.0616L388.149 53.08ZM396.389 54.68H397.389V53.8555L396.58 53.6983L396.389 54.68ZM396.389 59.48V60.48H397.389V59.48H396.389ZM371.989 59.48H370.989V60.48H371.989V59.48ZM371.989 54.68L371.799 53.6983L370.989 53.8555V54.68H371.989ZM380.229 53.08L380.42 54.0616L381.229 53.9045V53.08H380.229ZM380.229 7.87998H381.229V6.87998H380.229V7.87998ZM368.949 7.87998V6.87998H368.032L367.953 7.79363L368.949 7.87998ZM367.909 19.88V20.88H368.826L368.905 19.9663L367.909 19.88ZM361.589 19.88H360.589V20.88H361.589V19.88ZM361.589 1.87998V0.879978H360.589V1.87998H361.589ZM406.789 1.87998H407.789V0.879978H406.789V1.87998ZM406.789 19.88V20.88H407.789V19.88H406.789ZM400.469 19.88L399.474 19.9729L399.558 20.88H400.469V19.88ZM399.349 7.87998V6.87998H388.149V7.87998V8.87998H399.349V7.87998ZM388.149 7.87998H387.149V53.08H388.149H389.149V7.87998H388.149ZM388.149 53.08L387.959 54.0616L396.199 55.6616L396.389 54.68L396.58 53.6983L388.34 52.0983L388.149 53.08ZM396.389 54.68H395.389V59.48H396.389H397.389V54.68H396.389ZM396.389 59.48V58.48H371.989V59.48V60.48H396.389V59.48ZM371.989 59.48H372.989V54.68H371.989H370.989V59.48H371.989ZM371.989 54.68L372.18 55.6616L380.42 54.0616L380.229 53.08L380.039 52.0983L371.799 53.6983L371.989 54.68ZM380.229 53.08H381.229V7.87998H380.229H379.229V53.08H380.229ZM380.229 7.87998V6.87998H368.949V7.87998V8.87998H380.229V7.87998ZM368.949 7.87998L367.953 7.79363L366.913 19.7936L367.909 19.88L368.905 19.9663L369.945 7.96632L368.949 7.87998ZM367.909 19.88V18.88H361.589V19.88V20.88H367.909V19.88ZM361.589 19.88H362.589V1.87998H361.589H360.589V19.88H361.589ZM361.589 1.87998V2.87998H406.789V1.87998V0.879978H361.589V1.87998ZM406.789 1.87998H405.789V19.88H406.789H407.789V1.87998H406.789ZM406.789 19.88V18.88H400.469V19.88V20.88H406.789V19.88ZM400.469 19.88L401.465 19.787L400.345 7.78705L399.349 7.87998L398.354 7.97291L399.474 19.9729L400.469 19.88ZM411.6 54.68L411.39 53.7023L410.6 53.8722V54.68H411.6ZM419.04 53.08L419.251 54.0576L420.04 53.8878V53.08H419.04ZM419.04 8.27998H420.04V7.47217L419.251 7.30233L419.04 8.27998ZM411.6 6.67998H410.6V7.48779L411.39 7.65763L411.6 6.67998ZM411.6 1.87998V0.879978H410.6V1.87998H411.6ZM450 1.87998H451V0.879978H450V1.87998ZM450 19.48V20.48H451V19.48H450ZM443.68 19.48L442.684 19.5693L442.766 20.48H443.68V19.48ZM442.64 7.87998L443.636 7.79068L443.555 6.87998H442.64V7.87998ZM426.96 7.87998V6.87998H425.96V7.87998H426.96ZM426.96 27H425.96V28H426.96V27ZM442 27H443V26H442V27ZM442 33.64V34.64H443V33.64H442ZM426.96 33.64V32.64H425.96V33.64H426.96ZM426.96 53.48H425.96V54.48H426.96V53.48ZM442.56 53.48V54.48H443.477L443.557 53.5671L442.56 53.48ZM443.68 40.68V39.68H442.764L442.684 40.5928L443.68 40.68ZM450 40.68H451V39.68H450V40.68ZM450 59.48V60.48H451V59.48H450ZM411.6 59.48H410.6V60.48H411.6V59.48ZM411.6 54.68L411.811 55.6576L419.251 54.0576L419.04 53.08L418.83 52.1023L411.39 53.7023L411.6 54.68ZM419.04 53.08H420.04V8.27998H419.04H418.04V53.08H419.04ZM419.04 8.27998L419.251 7.30233L411.811 5.70233L411.6 6.67998L411.39 7.65763L418.83 9.25763L419.04 8.27998ZM411.6 6.67998H412.6V1.87998H411.6H410.6V6.67998H411.6ZM411.6 1.87998V2.87998H450V1.87998V0.879978H411.6V1.87998ZM450 1.87998H449V19.48H450H451V1.87998H450ZM450 19.48V18.48H443.68V19.48V20.48H450V19.48ZM443.68 19.48L444.676 19.3907L443.636 7.79068L442.64 7.87998L441.644 7.96927L442.684 19.5693L443.68 19.48ZM442.64 7.87998V6.87998H426.96V7.87998V8.87998H442.64V7.87998ZM426.96 7.87998H425.96V27H426.96H427.96V7.87998H426.96ZM426.96 27V28H442V27V26H426.96V27ZM442 27H441V33.64H442H443V27H442ZM442 33.64V32.64H426.96V33.64V34.64H442V33.64ZM426.96 33.64H425.96V53.48H426.96H427.96V33.64H426.96ZM426.96 53.48V54.48H442.56V53.48V52.48H426.96V53.48ZM442.56 53.48L443.557 53.5671L444.677 40.7671L443.68 40.68L442.684 40.5928L441.564 53.3928L442.56 53.48ZM443.68 40.68V41.68H450V40.68V39.68H443.68V40.68ZM450 40.68H449V59.48H450H451V40.68H450ZM450 59.48V58.48H411.6V59.48V60.48H450V59.48ZM411.6 59.48H412.6V54.68H411.6H410.6V59.48H411.6ZM472.835 59.72L472.53 60.6725L472.541 60.6758L472.835 59.72ZM469.555 58.04L468.924 58.8161V58.8161L469.555 58.04ZM467.555 55.64L466.671 56.1079V56.1079L467.555 55.64ZM466.355 52.92L467.298 52.5872L467.062 51.92H466.355V52.92ZM465.875 52.92V51.92H465.089L464.903 52.683L465.875 52.92ZM464.275 59.48V60.48H465.06L465.246 59.7169L464.275 59.48ZM457.875 59.48H456.875V60.48H457.875V59.48ZM457.875 41.72V40.72H456.875V41.72H457.875ZM465.875 41.72H466.875V40.72H465.875V41.72ZM466.675 47.32L465.729 47.646L465.736 47.666L465.744 47.6856L466.675 47.32ZM468.995 51L468.288 51.7071V51.7071L468.995 51ZM472.435 53.16L472.096 54.1009L472.118 54.1088L472.141 54.1158L472.435 53.16ZM481.395 53.16L481.723 54.1045L481.741 54.0982L481.759 54.0912L481.395 53.16ZM484.435 51.24L485.142 51.9471V51.9471L484.435 51.24ZM486.115 48.44L485.171 48.1096L485.164 48.131L485.157 48.1526L486.115 48.44ZM484.595 39.08L483.862 39.7604L483.868 39.7671L483.875 39.7736L484.595 39.08ZM479.395 35.32L478.948 36.2145L478.957 36.219L479.395 35.32ZM472.675 32.6L472.34 33.5422L472.352 33.5466L472.365 33.5507L472.675 32.6ZM465.955 29.4L465.405 30.2354L465.418 30.2437L465.431 30.2516L465.955 29.4ZM459.955 9.39998L459.036 9.00606V9.00606L459.955 9.39998ZM463.155 4.75998L463.832 5.49591L463.833 5.49478L463.155 4.75998ZM468.035 1.95998L468.335 2.91397L468.347 2.91011L468.359 2.90592L468.035 1.95998ZM477.875 1.47998L477.622 2.4476L477.646 2.45388L477.671 2.45896L477.875 1.47998ZM481.315 2.83998L480.781 3.68547L480.791 3.69158L480.8 3.69748L481.315 2.83998ZM483.955 5.39997L484.793 4.85499V4.85499L483.955 5.39997ZM485.395 9.31998L484.409 9.48988L484.552 10.32H485.395V9.31998ZM485.795 9.31998V10.32H486.603L486.772 9.53022L485.795 9.31998ZM487.395 1.87998V0.879978H486.587L486.417 1.66973L487.395 1.87998ZM493.715 1.87998H494.715V0.879978H493.715V1.87998ZM493.715 21.48V22.48H494.715V21.48H493.715ZM485.795 21.48H484.795V22.48H485.795V21.48ZM483.395 12.12L482.553 12.659V12.659L483.395 12.12ZM480.115 8.83998L479.56 9.67203L479.568 9.67721L479.576 9.68225L480.115 8.83998ZM472.035 8.11998L471.704 7.17612L471.697 7.17881L471.689 7.18164L472.035 8.11998ZM467.395 12.28L466.491 11.8519L466.486 11.8628L466.481 11.8738L467.395 12.28ZM468.835 21.08L468.142 21.8008L468.149 21.8079L468.157 21.8148L468.835 21.08ZM473.955 24.44L473.527 25.3438L473.536 25.3479L473.955 24.44ZM480.675 27.24L480.321 28.1755L480.334 28.1801L480.346 28.1845L480.675 27.24ZM487.395 30.6L486.83 31.4253L486.843 31.4338L486.855 31.4419L487.395 30.6ZM492.595 35.88L491.75 36.4155V36.4155L492.595 35.88ZM490.275 56.2L490.968 56.9203L490.969 56.9201L490.275 56.2ZM478.035 60.36V59.36C476.015 59.36 474.389 59.1519 473.129 58.7642L472.835 59.72L472.541 60.6758C474.054 61.1414 475.894 61.36 478.035 61.36V60.36ZM472.835 59.72L473.14 58.7676C471.894 58.3689 470.92 57.8604 470.185 57.2639L469.555 58.04L468.924 58.8161C469.897 59.6062 471.109 60.2177 472.53 60.6724L472.835 59.72ZM469.555 58.04L470.185 57.2639C469.429 56.6491 468.851 55.9517 468.439 55.1721L467.555 55.64L466.671 56.1079C467.218 57.1416 467.974 58.0442 468.924 58.8161L469.555 58.04ZM467.555 55.64L468.439 55.1721C467.98 54.3061 467.6 53.4444 467.298 52.5872L466.355 52.92L465.412 53.2528C465.749 54.2089 466.17 55.1606 466.671 56.1079L467.555 55.64ZM466.355 52.92V51.92H465.875V52.92V53.92H466.355V52.92ZM465.875 52.92L464.903 52.683L463.303 59.243L464.275 59.48L465.246 59.7169L466.846 53.1569L465.875 52.92ZM464.275 59.48V58.48H457.875V59.48V60.48H464.275V59.48ZM457.875 59.48H458.875V41.72H457.875H456.875V59.48H457.875ZM457.875 41.72V42.72H465.875V41.72V40.72H457.875V41.72ZM465.875 41.72H464.875C464.875 43.9826 465.15 45.9658 465.729 47.646L466.675 47.32L467.62 46.994C467.133 45.5808 466.875 43.8307 466.875 41.72H465.875ZM466.675 47.32L465.744 47.6856C466.372 49.284 467.214 50.6338 468.288 51.7071L468.995 51L469.702 50.2929C468.855 49.4461 468.151 48.3426 467.606 46.9543L466.675 47.32ZM468.995 51L468.288 51.7071C469.356 52.7758 470.63 53.5732 472.096 54.1009L472.435 53.16L472.774 52.2191C471.573 51.7867 470.553 51.1442 469.702 50.2929L468.995 51ZM472.435 53.16L472.141 54.1158C473.632 54.5746 475.225 54.8 476.915 54.8V53.8V52.8C475.404 52.8 474.011 52.5987 472.729 52.2042L472.435 53.16ZM476.915 53.8V54.8C478.75 54.8 480.361 54.5783 481.723 54.1045L481.395 53.16L481.066 52.2155C479.975 52.5949 478.6 52.8 476.915 52.8V53.8ZM481.395 53.16L481.759 54.0912C483.093 53.5691 484.23 52.8594 485.142 51.9471L484.435 51.24L483.728 50.5329C483.04 51.2206 482.15 51.7908 481.03 52.2287L481.395 53.16ZM484.435 51.24L485.142 51.9471C486.057 51.032 486.704 49.9551 487.073 48.7273L486.115 48.44L485.157 48.1526C484.885 49.0582 484.413 49.8479 483.728 50.5329L484.435 51.24ZM486.115 48.44L487.059 48.7703C487.471 47.5935 487.675 46.3615 487.675 45.08H486.675H485.675C485.675 46.1452 485.506 47.1532 485.171 48.1096L486.115 48.44ZM486.675 45.08H487.675C487.675 42.3369 486.928 40.0608 485.315 38.3863L484.595 39.08L483.875 39.7736C485.035 40.9791 485.675 42.7031 485.675 45.08H486.675ZM484.595 39.08L485.328 38.3995C483.846 36.8044 482.009 35.4811 479.833 34.421L479.395 35.32L478.957 36.219C480.941 37.1855 482.57 38.3689 483.862 39.7604L484.595 39.08ZM479.395 35.32L479.842 34.4256C477.766 33.3873 475.479 32.4625 472.985 31.6492L472.675 32.6L472.365 33.5507C474.777 34.3374 476.971 35.226 478.948 36.2144L479.395 35.32ZM472.675 32.6L473.01 31.6578C470.673 30.8269 468.497 29.7901 466.479 28.5483L465.955 29.4L465.431 30.2516C467.573 31.5699 469.877 32.6664 472.34 33.5422L472.675 32.6ZM465.955 29.4L466.504 28.5646C464.593 27.3072 462.981 25.6972 461.667 23.7253L460.835 24.28L460.003 24.8347C461.461 27.0228 463.263 28.8261 465.405 30.2354L465.955 29.4ZM460.835 24.28L461.667 23.7253C460.425 21.8617 459.755 19.303 459.755 15.96H458.755H457.755C457.755 19.5503 458.472 22.5382 460.003 24.8347L460.835 24.28ZM458.755 15.96H459.755C459.755 13.5579 460.138 11.5106 460.874 9.7939L459.955 9.39998L459.036 9.00606C458.171 11.0227 457.755 13.3487 457.755 15.96H458.755ZM459.955 9.39998L460.874 9.7939C461.625 8.04131 462.614 6.61599 463.832 5.49591L463.155 4.75998L462.478 4.02405C461.029 5.3573 459.885 7.02532 459.036 9.00606L459.955 9.39998ZM463.155 4.75998L463.833 5.49478C465.107 4.3186 466.603 3.45807 468.335 2.91397L468.035 1.95998L467.735 1.00599C465.733 1.63522 463.976 2.64136 462.477 4.02518L463.155 4.75998ZM468.035 1.95998L468.359 2.90592C470.116 2.30361 471.979 1.99998 473.955 1.99998V0.999981V-1.90735e-05C471.77 -1.90735e-05 469.687 0.336346 467.711 1.01403L468.035 1.95998ZM473.955 0.999981V1.99998C475.264 1.99998 476.485 2.151 477.622 2.4476L477.875 1.47998L478.127 0.51236C476.811 0.168953 475.419 -1.90735e-05 473.955 -1.90735e-05V0.999981ZM477.875 1.47998L477.671 2.45896C478.844 2.70345 479.877 3.11491 480.781 3.68547L481.315 2.83998L481.849 1.99449C480.726 1.28504 479.465 0.789841 478.079 0.500999L477.875 1.47998ZM481.315 2.83998L480.8 3.69748C481.734 4.25746 482.504 5.00274 483.116 5.94497L483.955 5.39997L484.793 4.85499C484.019 3.66388 483.029 2.7025 481.829 1.98249L481.315 2.83998ZM483.955 5.39997L483.116 5.94497C483.721 6.87461 484.161 8.04656 484.409 9.48988L485.395 9.31998L486.38 9.15007C486.096 7.50006 485.576 6.05868 484.793 4.85499L483.955 5.39997ZM485.395 9.31998V10.32H485.795V9.31998V8.31998H485.395V9.31998ZM485.795 9.31998L486.772 9.53022L488.372 2.09023L487.395 1.87998L486.417 1.66973L484.817 9.10973L485.795 9.31998ZM487.395 1.87998V2.87998H493.715V1.87998V0.879978H487.395V1.87998ZM493.715 1.87998H492.715V21.48H493.715H494.715V1.87998H493.715ZM493.715 21.48V20.48H485.795V21.48V22.48H493.715V21.48ZM485.795 21.48H486.795C486.795 19.8016 486.599 18.1011 486.21 16.3797L485.235 16.6L484.259 16.8202C484.617 18.4056 484.795 19.9583 484.795 21.48H485.795ZM485.235 16.6L486.21 16.3797C485.813 14.6212 485.157 13.0187 484.237 11.5809L483.395 12.12L482.553 12.659C483.339 13.8879 483.91 15.272 484.259 16.8202L485.235 16.6ZM483.395 12.12L484.237 11.5809C483.306 10.1258 482.109 8.929 480.654 7.99771L480.115 8.83998L479.576 9.68225C480.787 10.4576 481.777 11.4475 482.553 12.659L483.395 12.12ZM480.115 8.83998L480.67 8.00793C479.193 7.02362 477.416 6.55997 475.395 6.55997V7.55997V8.55997C477.107 8.55997 478.477 8.94967 479.56 9.67203L480.115 8.83998ZM475.395 7.55997V6.55997C474.113 6.55997 472.881 6.76421 471.704 7.17612L472.035 8.11998L472.365 9.06384C473.322 8.72908 474.33 8.55997 475.395 8.55997V7.55997ZM472.035 8.11998L471.689 7.18164C470.565 7.59584 469.553 8.1903 468.66 8.96429L469.315 9.71998L469.97 10.4757C470.677 9.86298 471.478 9.39079 472.381 9.05832L472.035 8.11998ZM469.315 9.71998L468.66 8.96429C467.749 9.75371 467.027 10.7208 466.491 11.8519L467.395 12.28L468.299 12.7081C468.723 11.8125 469.281 11.0729 469.97 10.4757L469.315 9.71998ZM467.395 12.28L466.481 11.8738C465.987 12.9864 465.755 14.2499 465.755 15.64H466.755H467.755C467.755 14.47 467.95 13.4935 468.309 12.6861L467.395 12.28ZM466.755 15.64H465.755C465.755 18.1489 466.522 20.2431 468.142 21.8008L468.835 21.08L469.528 20.3591C468.375 19.2502 467.755 17.7177 467.755 15.64H466.755ZM468.835 21.08L468.157 21.8148C469.63 23.1749 471.425 24.3483 473.527 25.3437L473.955 24.44L474.383 23.5362C472.431 22.6117 470.813 21.545 469.513 20.3452L468.835 21.08ZM473.955 24.44L473.536 25.3479C475.64 26.319 477.902 27.2614 480.321 28.1755L480.675 27.24L481.028 26.3045C478.648 25.4053 476.43 24.481 474.374 23.532L473.955 24.44ZM480.675 27.24L480.346 28.1845C482.721 29.0104 484.881 30.0914 486.83 31.4253L487.395 30.6L487.96 29.7747C485.856 28.3352 483.535 27.1762 481.003 26.2955L480.675 27.24ZM487.395 30.6L486.855 31.4419C488.807 32.6927 490.438 34.3459 491.75 36.4155L492.595 35.88L493.439 35.3444C491.978 33.0407 490.143 31.1739 487.934 29.7581L487.395 30.6ZM492.595 35.88L491.75 36.4155C493.004 38.3921 493.675 41.0669 493.675 44.52H494.675H495.675C495.675 40.8264 494.959 37.7412 493.439 35.3444L492.595 35.88ZM494.675 44.52H493.675C493.675 49.2717 492.277 52.8816 489.581 55.4799L490.275 56.2L490.969 56.9201C494.139 53.8651 495.675 49.6883 495.675 44.52H494.675ZM490.275 56.2L489.581 55.4797C486.941 58.0219 483.142 59.36 478.035 59.36V60.36V61.36C483.488 61.36 487.849 59.9247 490.968 56.9203L490.275 56.2ZM544.113 54.68L544.008 53.6855L543.113 53.7797V54.68H544.113ZM550.193 54.04L550.298 55.0345L551.81 54.8753L551.065 53.5501L550.193 54.04ZM539.313 34.68L540.185 34.1901L539.898 33.68H539.313V34.68ZM532.273 34.68V33.68H531.273V34.68H532.273ZM532.273 53.08H531.273V53.8878L532.063 54.0576L532.273 53.08ZM539.713 54.68H540.713V53.8722L539.923 53.7023L539.713 54.68ZM539.713 59.48V60.48H540.713V59.48H539.713ZM516.913 59.48H515.913V60.48H516.913V59.48ZM516.913 54.68L516.703 53.7023L515.913 53.8722V54.68H516.913ZM524.353 53.08L524.563 54.0576L525.353 53.8878V53.08H524.353ZM524.353 8.27998H525.353V7.47217L524.563 7.30233L524.353 8.27998ZM516.913 6.67998H515.913V7.48779L516.703 7.65763L516.913 6.67998ZM516.913 1.87998V0.879978H515.913V1.87998H516.913ZM550.673 3.23998L550.298 4.16693L550.311 4.17225L550.324 4.1772L550.673 3.23998ZM555.953 6.75998L555.18 7.39472L555.193 7.40977L555.206 7.42434L555.953 6.75998ZM558.513 11.96L557.534 12.166L557.536 12.1713L558.513 11.96ZM558.673 23.8L557.689 23.6211L557.686 23.6356L557.684 23.6502L558.673 23.8ZM556.993 28.52L557.845 29.0441V29.0441L556.993 28.52ZM553.393 32.12L553.941 32.9564V32.9564L553.393 32.12ZM547.393 34.28L547.222 33.2948L545.776 33.5462L546.539 34.7998L547.393 34.28ZM558.833 53.08L557.979 53.5998L558.175 53.922L558.535 54.0345L558.833 53.08ZM563.953 54.68H564.953V53.9448L564.251 53.7255L563.953 54.68ZM563.953 59.48V60.48H564.953V59.48H563.953ZM544.113 59.48H543.113V60.48H544.113V59.48ZM546.033 27.96L546.36 28.905L546.37 28.9015L546.38 28.8977L546.033 27.96ZM549.313 25.88L550.066 26.5385L550.075 26.5272L550.085 26.5157L549.313 25.88ZM550.753 22.68L551.738 22.8513L551.739 22.8444L550.753 22.68ZM550.753 14.2L549.766 14.358L549.767 14.3644L550.753 14.2ZM549.313 10.84L548.524 11.4539L548.532 11.4649L548.541 11.4757L549.313 10.84ZM546.033 8.67998L545.674 9.61332L545.695 9.62148L545.717 9.62866L546.033 8.67998ZM532.273 7.87998V6.87998H531.273V7.87998H532.273ZM532.273 28.68H531.273V29.68H532.273V28.68ZM544.113 54.68L544.218 55.6745L550.298 55.0345L550.193 54.04L550.088 53.0455L544.008 53.6855L544.113 54.68ZM550.193 54.04L551.065 53.5501L540.185 34.1901L539.313 34.68L538.441 35.1699L549.321 54.5299L550.193 54.04ZM539.313 34.68V33.68H532.273V34.68V35.68H539.313V34.68ZM532.273 34.68H531.273V53.08H532.273H533.273V34.68H532.273ZM532.273 53.08L532.063 54.0576L539.503 55.6576L539.713 54.68L539.923 53.7023L532.483 52.1023L532.273 53.08ZM539.713 54.68H538.713V59.48H539.713H540.713V54.68H539.713ZM539.713 59.48V58.48H516.913V59.48V60.48H539.713V59.48ZM516.913 59.48H517.913V54.68H516.913H515.913V59.48H516.913ZM516.913 54.68L517.123 55.6576L524.563 54.0576L524.353 53.08L524.143 52.1023L516.703 53.7023L516.913 54.68ZM524.353 53.08H525.353V8.27998H524.353H523.353V53.08H524.353ZM524.353 8.27998L524.563 7.30233L517.123 5.70233L516.913 6.67998L516.703 7.65763L524.143 9.25763L524.353 8.27998ZM516.913 6.67998H517.913V1.87998H516.913H515.913V6.67998H516.913ZM516.913 1.87998V2.87998H541.713V1.87998V0.879978H516.913V1.87998ZM541.713 1.87998V2.87998C545.38 2.87998 548.224 3.32747 550.298 4.16693L550.673 3.23998L551.048 2.31303C548.642 1.33916 545.512 0.879978 541.713 0.879978V1.87998ZM550.673 3.23998L550.324 4.1772C552.495 4.98507 554.092 6.0697 555.18 7.39472L555.953 6.75998L556.726 6.12524C555.361 4.46359 553.437 3.20155 551.022 2.30276L550.673 3.23998ZM555.953 6.75998L555.206 7.42434C556.361 8.72456 557.141 10.2964 557.534 12.166L558.513 11.96L559.492 11.754C559.032 9.57019 558.105 7.6754 556.7 6.09562L555.953 6.75998ZM558.513 11.96L557.536 12.1713C557.946 14.0681 558.153 16.1034 558.153 18.28H559.153H560.153C560.153 15.9766 559.934 13.7985 559.49 11.7486L558.513 11.96ZM559.153 18.28H558.153C558.153 20.1443 557.998 21.9242 557.689 23.6211L558.673 23.8L559.657 23.9789C559.988 22.1557 560.153 20.2556 560.153 18.28H559.153ZM558.673 23.8L557.684 23.6502C557.436 25.2899 556.918 26.7338 556.141 27.9959L556.993 28.52L557.845 29.0441C558.775 27.5328 559.377 25.83 559.662 23.9498L558.673 23.8ZM556.993 28.52L556.141 27.9959C555.375 29.2414 554.285 30.3398 552.845 31.2835L553.393 32.12L553.941 32.9564C555.594 31.8735 556.904 30.5719 557.845 29.0441L556.993 28.52ZM553.393 32.12L552.845 31.2835C551.445 32.201 549.585 32.8838 547.222 33.2948L547.393 34.28L547.564 35.2652C550.108 34.8228 552.248 34.0656 553.941 32.9564L553.393 32.12ZM547.393 34.28L546.539 34.7998L557.979 53.5998L558.833 53.08L559.687 52.5602L548.247 33.7601L547.393 34.28ZM558.833 53.08L558.535 54.0345L563.655 55.6345L563.953 54.68L564.251 53.7255L559.131 52.1255L558.833 53.08ZM563.953 54.68H562.953V59.48H563.953H564.953V54.68H563.953ZM563.953 59.48V58.48H544.113V59.48V60.48H563.953V59.48ZM544.113 59.48H545.113V54.68H544.113H543.113V59.48H544.113ZM540.433 28.68V29.68C542.833 29.68 544.824 29.4365 546.36 28.905L546.033 27.96L545.706 27.015C544.468 27.4434 542.727 27.68 540.433 27.68V28.68ZM546.033 27.96L546.38 28.8977C547.924 28.3261 549.177 27.5538 550.066 26.5385L549.313 25.88L548.56 25.2215C547.955 25.9129 547.022 26.5272 545.686 27.0222L546.033 27.96ZM549.313 25.88L550.085 26.5157C550.948 25.4672 551.497 24.238 551.738 22.8513L550.753 22.68L549.768 22.5086C549.582 23.5753 549.171 24.4794 548.541 25.2443L549.313 25.88ZM550.753 22.68L551.739 22.8444C551.963 21.5045 552.073 20.0892 552.073 18.6H551.073H550.073C550.073 19.9908 549.97 21.2954 549.767 22.5156L550.753 22.68ZM551.073 18.6H552.073C552.073 16.9057 551.964 15.3823 551.739 14.0356L550.753 14.2L549.767 14.3644C549.969 15.5777 550.073 16.9876 550.073 18.6H551.073ZM550.753 14.2L551.74 14.042C551.503 12.5598 550.961 11.2676 550.085 10.2043L549.313 10.84L548.541 11.4757C549.159 12.2257 549.576 13.1735 549.766 14.358L550.753 14.2ZM549.313 10.84L550.102 10.226C549.207 9.0755 547.93 8.2582 546.349 7.73129L546.033 8.67998L545.717 9.62866C547.016 10.0618 547.925 10.6845 548.524 11.4539L549.313 10.84ZM546.033 8.67998L546.392 7.74663C544.844 7.15123 542.839 6.87998 540.433 6.87998V7.87998V8.87998C542.72 8.87998 544.449 9.14206 545.674 9.61332L546.033 8.67998ZM540.433 7.87998V6.87998H532.273V7.87998V8.87998H540.433V7.87998ZM532.273 7.87998H531.273V28.68H532.273H533.273V7.87998H532.273ZM532.273 28.68V29.68H540.433V28.68V27.68H532.273V28.68ZM590.416 6.67998L590.626 7.65763L591.416 7.48779V6.67998H590.416ZM582.976 8.27998L582.766 7.30233L581.976 7.47217V8.27998H582.976ZM582.976 53.08H581.976V53.8878L582.766 54.0576L582.976 53.08ZM590.416 54.68H591.416V53.8722L590.626 53.7023L590.416 54.68ZM590.416 59.48V60.48H591.416V59.48H590.416ZM567.616 59.48H566.616V60.48H567.616V59.48ZM567.616 54.68L567.406 53.7023L566.616 53.8722V54.68H567.616ZM575.056 53.08L575.266 54.0576L576.056 53.8878V53.08H575.056ZM575.056 8.27998H576.056V7.47217L575.266 7.30233L575.056 8.27998ZM567.616 6.67998H566.616V7.48779L567.406 7.65763L567.616 6.67998ZM567.616 1.87998V0.879978H566.616V1.87998H567.616ZM590.416 1.87998H591.416V0.879978H590.416V1.87998ZM590.416 6.67998L590.206 5.70233L582.766 7.30233L582.976 8.27998L583.186 9.25763L590.626 7.65763L590.416 6.67998ZM582.976 8.27998H581.976V53.08H582.976H583.976V8.27998H582.976ZM582.976 53.08L582.766 54.0576L590.206 55.6576L590.416 54.68L590.626 53.7023L583.186 52.1023L582.976 53.08ZM590.416 54.68H589.416V59.48H590.416H591.416V54.68H590.416ZM590.416 59.48V58.48H567.616V59.48V60.48H590.416V59.48ZM567.616 59.48H568.616V54.68H567.616H566.616V59.48H567.616ZM567.616 54.68L567.826 55.6576L575.266 54.0576L575.056 53.08L574.846 52.1023L567.406 53.7023L567.616 54.68ZM575.056 53.08H576.056V8.27998H575.056H574.056V53.08H575.056ZM575.056 8.27998L575.266 7.30233L567.826 5.70233L567.616 6.67998L567.406 7.65763L574.846 9.25763L575.056 8.27998ZM567.616 6.67998H568.616V1.87998H567.616H566.616V6.67998H567.616ZM567.616 1.87998V2.87998H590.416V1.87998V0.879978H567.616V1.87998ZM590.416 1.87998H589.416V6.67998H590.416H591.416V1.87998H590.416ZM611.663 59.72L611.358 60.6725L611.369 60.6758L611.663 59.72ZM608.383 58.04L607.752 58.8161V58.8161L608.383 58.04ZM606.383 55.64L605.499 56.1079V56.1079L606.383 55.64ZM605.183 52.92L606.126 52.5872L605.89 51.92H605.183V52.92ZM604.703 52.92V51.92H603.918L603.731 52.683L604.703 52.92ZM603.103 59.48V60.48H603.888L604.074 59.7169L603.103 59.48ZM596.703 59.48H595.703V60.48H596.703V59.48ZM596.703 41.72V40.72H595.703V41.72H596.703ZM604.703 41.72H605.703V40.72H604.703V41.72ZM605.503 47.32L604.558 47.646L604.564 47.666L604.572 47.6856L605.503 47.32ZM607.823 51L607.116 51.7071V51.7071L607.823 51ZM611.263 53.16L610.924 54.1009L610.946 54.1088L610.969 54.1158L611.263 53.16ZM620.223 53.16L620.551 54.1045L620.57 54.0982L620.587 54.0912L620.223 53.16ZM623.263 51.24L623.97 51.9471V51.9471L623.263 51.24ZM624.943 48.44L623.999 48.1096L623.992 48.131L623.985 48.1526L624.943 48.44ZM623.423 39.08L622.69 39.7604L622.696 39.7671L622.703 39.7736L623.423 39.08ZM618.223 35.32L617.776 36.2145L617.785 36.219L618.223 35.32ZM611.503 32.6L611.168 33.5422L611.18 33.5466L611.193 33.5507L611.503 32.6ZM604.783 29.4L604.233 30.2354L604.246 30.2437L604.259 30.2516L604.783 29.4ZM598.783 9.39998L597.864 9.00606V9.00606L598.783 9.39998ZM601.983 4.75998L602.66 5.49591L602.661 5.49478L601.983 4.75998ZM606.863 1.95998L607.163 2.91397L607.175 2.91011L607.187 2.90592L606.863 1.95998ZM616.703 1.47998L616.451 2.4476L616.475 2.45388L616.499 2.45896L616.703 1.47998ZM620.143 2.83998L619.609 3.68547L619.619 3.69158L619.628 3.69748L620.143 2.83998ZM622.783 5.39997L623.621 4.85499V4.85499L622.783 5.39997ZM624.223 9.31998L623.237 9.48988L623.381 10.32H624.223V9.31998ZM624.623 9.31998V10.32H625.431L625.601 9.53022L624.623 9.31998ZM626.223 1.87998V0.879978H625.415L625.245 1.66973L626.223 1.87998ZM632.543 1.87998H633.543V0.879978H632.543V1.87998ZM632.543 21.48V22.48H633.543V21.48H632.543ZM624.623 21.48H623.623V22.48H624.623V21.48ZM622.223 12.12L621.381 12.659V12.659L622.223 12.12ZM618.943 8.83998L618.388 9.67203L618.396 9.67721L618.404 9.68225L618.943 8.83998ZM610.863 8.11998L610.533 7.17612L610.525 7.17881L610.517 7.18164L610.863 8.11998ZM606.223 12.28L605.319 11.8519L605.314 11.8628L605.309 11.8738L606.223 12.28ZM607.663 21.08L606.97 21.8008L606.977 21.8079L606.985 21.8148L607.663 21.08ZM612.783 24.44L612.355 25.3438L612.364 25.3479L612.783 24.44ZM619.503 27.24L619.15 28.1755L619.162 28.1801L619.174 28.1845L619.503 27.24ZM626.223 30.6L625.658 31.4253L625.671 31.4338L625.683 31.4419L626.223 30.6ZM631.423 35.88L630.578 36.4155V36.4155L631.423 35.88ZM629.103 56.2L629.797 56.9203L629.797 56.9201L629.103 56.2ZM616.863 60.36V59.36C614.843 59.36 613.217 59.1519 611.957 58.7642L611.663 59.72L611.369 60.6758C612.882 61.1414 614.723 61.36 616.863 61.36V60.36ZM611.663 59.72L611.968 58.7676C610.722 58.3689 609.748 57.8604 609.014 57.2639L608.383 58.04L607.752 58.8161C608.725 59.6062 609.937 60.2177 611.358 60.6724L611.663 59.72ZM608.383 58.04L609.014 57.2639C608.257 56.6491 607.68 55.9517 607.267 55.1721L606.383 55.64L605.499 56.1079C606.046 57.1416 606.802 58.0442 607.752 58.8161L608.383 58.04ZM606.383 55.64L607.267 55.1721C606.808 54.3061 606.429 53.4444 606.126 52.5872L605.183 52.92L604.24 53.2528C604.577 54.2089 604.998 55.1606 605.499 56.1079L606.383 55.64ZM605.183 52.92V51.92H604.703V52.92V53.92H605.183V52.92ZM604.703 52.92L603.731 52.683L602.131 59.243L603.103 59.48L604.074 59.7169L605.674 53.1569L604.703 52.92ZM603.103 59.48V58.48H596.703V59.48V60.48H603.103V59.48ZM596.703 59.48H597.703V41.72H596.703H595.703V59.48H596.703ZM596.703 41.72V42.72H604.703V41.72V40.72H596.703V41.72ZM604.703 41.72H603.703C603.703 43.9826 603.978 45.9658 604.558 47.646L605.503 47.32L606.448 46.994C605.961 45.5808 605.703 43.8307 605.703 41.72H604.703ZM605.503 47.32L604.572 47.6856C605.2 49.284 606.043 50.6338 607.116 51.7071L607.823 51L608.53 50.2929C607.683 49.4461 606.979 48.3426 606.434 46.9543L605.503 47.32ZM607.823 51L607.116 51.7071C608.185 52.7758 609.459 53.5732 610.924 54.1009L611.263 53.16L611.602 52.2191C610.401 51.7867 609.381 51.1442 608.53 50.2929L607.823 51ZM611.263 53.16L610.969 54.1158C612.46 54.5746 614.053 54.8 615.743 54.8V53.8V52.8C614.232 52.8 612.839 52.5987 611.557 52.2042L611.263 53.16ZM615.743 53.8V54.8C617.578 54.8 619.189 54.5783 620.551 54.1045L620.223 53.16L619.894 52.2155C618.803 52.5949 617.428 52.8 615.743 52.8V53.8ZM620.223 53.16L620.587 54.0912C621.922 53.5691 623.058 52.8594 623.97 51.9471L623.263 51.24L622.556 50.5329C621.868 51.2206 620.978 51.7908 619.859 52.2287L620.223 53.16ZM623.263 51.24L623.97 51.9471C624.885 51.032 625.532 49.9551 625.901 48.7273L624.943 48.44L623.985 48.1526C623.713 49.0582 623.241 49.8479 622.556 50.5329L623.263 51.24ZM624.943 48.44L625.887 48.7703C626.299 47.5935 626.503 46.3615 626.503 45.08H625.503H624.503C624.503 46.1452 624.334 47.1532 623.999 48.1096L624.943 48.44ZM625.503 45.08H626.503C626.503 42.3369 625.756 40.0608 624.143 38.3863L623.423 39.08L622.703 39.7736C623.864 40.9791 624.503 42.7031 624.503 45.08H625.503ZM623.423 39.08L624.156 38.3995C622.675 36.8044 620.837 35.4811 618.661 34.421L618.223 35.32L617.785 36.219C619.769 37.1855 621.398 38.3689 622.69 39.7604L623.423 39.08ZM618.223 35.32L618.67 34.4256C616.594 33.3873 614.307 32.4625 611.813 31.6492L611.503 32.6L611.193 33.5507C613.606 34.3374 615.799 35.226 617.776 36.2144L618.223 35.32ZM611.503 32.6L611.838 31.6578C609.501 30.8269 607.325 29.7901 605.307 28.5483L604.783 29.4L604.259 30.2516C606.401 31.5699 608.705 32.6664 611.168 33.5422L611.503 32.6ZM604.783 29.4L605.333 28.5646C603.421 27.3072 601.81 25.6972 600.495 23.7253L599.663 24.28L598.831 24.8347C600.29 27.0228 602.091 28.8261 604.233 30.2354L604.783 29.4ZM599.663 24.28L600.495 23.7253C599.253 21.8617 598.583 19.303 598.583 15.96H597.583H596.583C596.583 19.5503 597.3 22.5382 598.831 24.8347L599.663 24.28ZM597.583 15.96H598.583C598.583 13.5579 598.966 11.5106 599.702 9.7939L598.783 9.39998L597.864 9.00606C597 11.0227 596.583 13.3487 596.583 15.96H597.583ZM598.783 9.39998L599.702 9.7939C600.453 8.04131 601.443 6.61599 602.66 5.49591L601.983 4.75998L601.306 4.02405C599.857 5.3573 598.713 7.02532 597.864 9.00606L598.783 9.39998ZM601.983 4.75998L602.661 5.49478C603.935 4.3186 605.432 3.45807 607.163 2.91397L606.863 1.95998L606.563 1.00599C604.561 1.63522 602.804 2.64136 601.305 4.02518L601.983 4.75998ZM606.863 1.95998L607.187 2.90592C608.944 2.30361 610.807 1.99998 612.783 1.99998V0.999981V-1.90735e-05C610.599 -1.90735e-05 608.515 0.336346 606.539 1.01403L606.863 1.95998ZM612.783 0.999981V1.99998C614.092 1.99998 615.314 2.151 616.451 2.4476L616.703 1.47998L616.955 0.51236C615.639 0.168953 614.247 -1.90735e-05 612.783 -1.90735e-05V0.999981ZM616.703 1.47998L616.499 2.45896C617.673 2.70345 618.706 3.11491 619.609 3.68547L620.143 2.83998L620.677 1.99449C619.554 1.28504 618.293 0.789841 616.907 0.500999L616.703 1.47998ZM620.143 2.83998L619.628 3.69748C620.562 4.25746 621.332 5.00274 621.945 5.94497L622.783 5.39997L623.621 4.85499C622.847 3.66388 621.857 2.7025 620.657 1.98249L620.143 2.83998ZM622.783 5.39997L621.945 5.94497C622.549 6.87461 622.989 8.04656 623.237 9.48988L624.223 9.31998L625.208 9.15007C624.924 7.50006 624.404 6.05868 623.621 4.85499L622.783 5.39997ZM624.223 9.31998V10.32H624.623V9.31998V8.31998H624.223V9.31998ZM624.623 9.31998L625.601 9.53022L627.201 2.09023L626.223 1.87998L625.245 1.66973L623.645 9.10973L624.623 9.31998ZM626.223 1.87998V2.87998H632.543V1.87998V0.879978H626.223V1.87998ZM632.543 1.87998H631.543V21.48H632.543H633.543V1.87998H632.543ZM632.543 21.48V20.48H624.623V21.48V22.48H632.543V21.48ZM624.623 21.48H625.623C625.623 19.8016 625.427 18.1011 625.038 16.3797L624.063 16.6L623.088 16.8202C623.445 18.4056 623.623 19.9583 623.623 21.48H624.623ZM624.063 16.6L625.038 16.3797C624.641 14.6212 623.985 13.0187 623.065 11.5809L622.223 12.12L621.381 12.659C622.167 13.8879 622.738 15.272 623.088 16.8202L624.063 16.6ZM622.223 12.12L623.065 11.5809C622.134 10.1258 620.937 8.929 619.482 7.99771L618.943 8.83998L618.404 9.68225C619.615 10.4576 620.605 11.4475 621.381 12.659L622.223 12.12ZM618.943 8.83998L619.498 8.00793C618.021 7.02362 616.244 6.55997 614.223 6.55997V7.55997V8.55997C615.935 8.55997 617.305 8.94967 618.388 9.67203L618.943 8.83998ZM614.223 7.55997V6.55997C612.941 6.55997 611.709 6.76421 610.533 7.17612L610.863 8.11998L611.193 9.06384C612.15 8.72908 613.158 8.55997 614.223 8.55997V7.55997ZM610.863 8.11998L610.517 7.18164C609.393 7.59584 608.381 8.1903 607.488 8.96429L608.143 9.71998L608.798 10.4757C609.505 9.86298 610.306 9.39079 611.209 9.05832L610.863 8.11998ZM608.143 9.71998L607.488 8.96429C606.577 9.75371 605.855 10.7208 605.319 11.8519L606.223 12.28L607.127 12.7081C607.551 11.8125 608.109 11.0729 608.798 10.4757L608.143 9.71998ZM606.223 12.28L605.309 11.8738C604.815 12.9864 604.583 14.2499 604.583 15.64H605.583H606.583C606.583 14.47 606.778 13.4935 607.137 12.6861L606.223 12.28ZM605.583 15.64H604.583C604.583 18.1489 605.35 20.2431 606.97 21.8008L607.663 21.08L608.356 20.3591C607.203 19.2502 606.583 17.7177 606.583 15.64H605.583ZM607.663 21.08L606.985 21.8148C608.458 23.1749 610.253 24.3483 612.355 25.3437L612.783 24.44L613.211 23.5362C611.259 22.6117 609.641 21.545 608.341 20.3452L607.663 21.08ZM612.783 24.44L612.364 25.3479C614.468 26.319 616.73 27.2614 619.15 28.1755L619.503 27.24L619.856 26.3045C617.476 25.4053 615.258 24.481 613.202 23.532L612.783 24.44ZM619.503 27.24L619.174 28.1845C621.549 29.0104 623.709 30.0914 625.658 31.4253L626.223 30.6L626.788 29.7747C624.684 28.3352 622.364 27.1762 619.831 26.2955L619.503 27.24ZM626.223 30.6L625.683 31.4419C627.635 32.6927 629.266 34.3459 630.578 36.4155L631.423 35.88L632.267 35.3444C630.807 33.0407 628.971 31.1739 626.763 29.7581L626.223 30.6ZM631.423 35.88L630.578 36.4155C631.832 38.3921 632.503 41.0669 632.503 44.52H633.503H634.503C634.503 40.8264 633.787 37.7412 632.267 35.3444L631.423 35.88ZM633.503 44.52H632.503C632.503 49.2717 631.105 52.8816 628.409 55.4799L629.103 56.2L629.797 56.9201C632.967 53.8651 634.503 49.6883 634.503 44.52H633.503ZM629.103 56.2L628.409 55.4797C625.769 58.0219 621.97 59.36 616.863 59.36V60.36V61.36C622.316 61.36 626.677 59.9247 629.797 56.9203L629.103 56.2ZM639.882 54.68L639.671 53.7023L638.882 53.8722V54.68H639.882ZM647.322 53.08L647.532 54.0576L648.322 53.8878V53.08H647.322ZM647.322 8.27998H648.322V7.47217L647.532 7.30233L647.322 8.27998ZM639.882 6.67998H638.882V7.48779L639.671 7.65763L639.882 6.67998ZM639.882 1.87998V0.879978H638.882V1.87998H639.882ZM678.282 1.87998H679.282V0.879978H678.282V1.87998ZM678.282 19.48V20.48H679.282V19.48H678.282ZM671.962 19.48L670.966 19.5693L671.047 20.48H671.962V19.48ZM670.922 7.87998L671.918 7.79068L671.836 6.87998H670.922V7.87998ZM655.242 7.87998V6.87998H654.242V7.87998H655.242ZM655.242 27H654.242V28H655.242V27ZM670.282 27H671.282V26H670.282V27ZM670.282 33.64V34.64H671.282V33.64H670.282ZM655.242 33.64V32.64H654.242V33.64H655.242ZM655.242 53.48H654.242V54.48H655.242V53.48ZM670.842 53.48V54.48H671.758L671.838 53.5671L670.842 53.48ZM671.962 40.68V39.68H671.045L670.966 40.5928L671.962 40.68ZM678.282 40.68H679.282V39.68H678.282V40.68ZM678.282 59.48V60.48H679.282V59.48H678.282ZM639.882 59.48H638.882V60.48H639.882V59.48ZM639.882 54.68L640.092 55.6576L647.532 54.0576L647.322 53.08L647.111 52.1023L639.671 53.7023L639.882 54.68ZM647.322 53.08H648.322V8.27998H647.322H646.322V53.08H647.322ZM647.322 8.27998L647.532 7.30233L640.092 5.70233L639.882 6.67998L639.671 7.65763L647.111 9.25763L647.322 8.27998ZM639.882 6.67998H640.882V1.87998H639.882H638.882V6.67998H639.882ZM639.882 1.87998V2.87998H678.282V1.87998V0.879978H639.882V1.87998ZM678.282 1.87998H677.282V19.48H678.282H679.282V1.87998H678.282ZM678.282 19.48V18.48H671.962V19.48V20.48H678.282V19.48ZM671.962 19.48L672.958 19.3907L671.918 7.79068L670.922 7.87998L669.926 7.96927L670.966 19.5693L671.962 19.48ZM670.922 7.87998V6.87998H655.242V7.87998V8.87998H670.922V7.87998ZM655.242 7.87998H654.242V27H655.242H656.242V7.87998H655.242ZM655.242 27V28H670.282V27V26H655.242V27ZM670.282 27H669.282V33.64H670.282H671.282V27H670.282ZM670.282 33.64V32.64H655.242V33.64V34.64H670.282V33.64ZM655.242 33.64H654.242V53.48H655.242H656.242V33.64H655.242ZM655.242 53.48V54.48H670.842V53.48V52.48H655.242V53.48ZM670.842 53.48L671.838 53.5671L672.958 40.7671L671.962 40.68L670.966 40.5928L669.846 53.3928L670.842 53.48ZM671.962 40.68V41.68H678.282V40.68V39.68H671.962V40.68ZM678.282 40.68H677.282V59.48H678.282H679.282V40.68H678.282ZM678.282 59.48V58.48H639.882V59.48V60.48H678.282V59.48ZM639.882 59.48H640.882V54.68H639.882H638.882V59.48H639.882Z" fill="black" mask="url(#path-1-outside-1_62_88)"/>
</svg>
