<svg width="687" height="160" viewBox="0 0 687 160" fill="none" xmlns="http://www.w3.org/2000/svg">
<mask id="path-1-outside-1_62_87" maskUnits="userSpaceOnUse" x="0" y="0" width="687" height="160" fill="black">
<rect fill="white" width="687" height="160"/>
<path d="M1 157.649V9.01022H32.193C40.3564 9.01022 46.5005 11.9943 50.6252 17.9623C54.7499 23.8741 56.8122 32.5447 56.8122 43.9741V113.564C56.8122 127.64 54.9217 138.506 51.1408 146.163C47.4028 153.82 40.829 157.649 31.4196 157.649H1ZM23.8147 131.384H27.746C31.9137 131.384 33.9975 128.737 33.9975 123.445V46.761C33.9975 41.8064 33.4819 38.6253 32.4508 37.2178C31.4626 35.7539 29.4217 35.022 26.3282 35.022H23.8147V131.384Z"/>
<path d="M62.9993 157.649L73.9555 9.01022H112.431L123.194 157.649H101.733L100.121 133.664H86.4584L85.0406 157.649H62.9993ZM88.0697 109.932H98.3814L93.4189 34.3463H92.3877L88.0697 109.932Z"/>
<path d="M129.123 157.649V9.01022H151.036V157.649H129.123Z"/>
<path d="M160.058 157.649V9.01022H183.389L193.829 80.2047V9.01022H215.742V157.649H193.572L182.229 83.3295V157.649H160.058Z"/>
<path d="M224.764 157.649V9.01022H246.677V157.649H224.764Z"/>
<path d="M255.7 157.649V9.01022H278.128V68.5501L288.697 9.01022H311.512L298.816 77.0799L314.154 157.649H290.631L278.257 85.6942V157.649H255.7Z"/>
<path d="M375.96 159C365.605 159 358.13 155.622 353.532 148.866C348.978 142.109 346.701 131.355 346.701 116.604V102.078H369.129V120.658C369.129 124.092 369.515 126.795 370.289 128.766C371.105 130.68 372.501 131.637 374.478 131.637C376.54 131.637 377.958 130.849 378.731 129.272C379.548 127.696 379.956 125.106 379.956 121.503C379.956 116.942 379.612 113.142 378.925 110.101C378.237 107.005 377.034 104.077 375.316 101.318C373.64 98.503 371.298 95.2375 368.291 91.5215L358.108 78.8534C350.503 69.4509 346.701 58.6972 346.701 46.5921C346.701 33.9241 348.935 24.2682 353.403 17.6245C357.915 10.9808 364.424 7.65896 372.931 7.65896C383.329 7.65896 390.697 11.2905 395.037 18.5535C399.419 25.8165 401.611 36.8518 401.611 51.6593H378.538V41.4404C378.538 39.4136 378.087 37.8371 377.185 36.711C376.325 35.585 375.144 35.022 373.64 35.022C371.836 35.022 370.504 35.6976 369.644 37.0489C368.828 38.3438 368.42 40.0329 368.42 42.1161C368.42 44.1993 368.849 46.4514 369.709 48.8724C370.568 51.2934 372.265 54.0803 374.8 57.2333L387.883 73.7018C390.504 76.9673 392.91 80.4299 395.101 84.0896C397.293 87.6929 399.054 91.9156 400.386 96.7576C401.718 101.543 402.384 107.399 402.384 114.324C402.384 128.287 400.408 139.238 396.455 147.176C392.545 155.059 385.713 159 375.96 159Z"/>
<path d="M408.958 157.649V9.01022H430.87V157.649H408.958Z"/>
<path d="M439.893 157.649V9.01022H463.223L473.664 80.2047V9.01022H495.576V157.649H473.406L462.063 83.3295V157.649H439.893Z"/>
<path d="M505.63 157.649V9.01022H528.96L539.401 80.2047V9.01022H561.314V157.649H539.143L527.8 83.3295V157.649H505.63Z"/>
<path d="M571.367 157.649V9.01022H616.739V37.7245H594.44V66.6921H615.837V94.6463H594.44V128.681H618.221V157.649H571.367Z"/>
<path d="M625.762 157.649V9.01022H660.564C666.364 9.01022 670.747 10.7556 673.711 14.2464C676.676 17.6808 678.652 22.5228 679.641 28.7724C680.672 34.9657 681.187 42.2568 681.187 50.6459C681.187 58.7535 680.393 65.2282 678.803 70.0702C677.256 74.9123 674.313 78.2623 669.973 80.1202C673.539 81.0774 676.031 83.4139 677.449 87.1299C678.91 90.7896 679.641 95.5471 679.641 101.403V157.649H657.277V99.4601C657.277 95.1249 656.59 92.4505 655.215 91.437C653.883 90.3673 651.713 89.8324 648.705 89.8324V157.649H625.762ZM648.834 64.074H654.312C657.449 64.074 659.017 59.598 659.017 50.6459C659.017 44.8467 658.673 41.0463 657.986 39.2446C657.299 37.443 656.01 36.5421 654.119 36.5421H648.834V64.074Z"/>
<path d="M5.81263 150.99V2.35126H37.0056C45.1691 2.35126 51.3131 5.33529 55.4378 11.3034C59.5625 17.2151 61.6249 25.8857 61.6249 37.3151V106.905C61.6249 120.981 59.7344 131.847 55.9534 139.504C52.2154 147.161 45.6417 150.99 36.2322 150.99H5.81263ZM28.6273 124.725H32.5587C36.7263 124.725 38.8102 122.078 38.8102 116.786V40.1021C38.8102 35.1474 38.2946 31.9664 37.2634 30.5588C36.2752 29.0949 34.2343 28.363 31.1408 28.363H28.6273V124.725Z"/>
<path d="M67.8119 150.99L78.7681 2.35126H117.244L128.007 150.99H106.545L104.934 127.005H91.2711L89.8532 150.99H67.8119ZM92.8823 103.273H103.194L98.2315 27.6874H97.2003L92.8823 103.273Z"/>
<path d="M133.936 150.99V2.35126H155.848V150.99H133.936Z"/>
<path d="M164.871 150.99V2.35126H188.201L198.642 73.5457V2.35126H220.554V150.99H198.384L187.041 76.6705V150.99H164.871Z"/>
<path d="M229.577 150.99V2.35126H251.49V150.99H229.577Z"/>
<path d="M260.512 150.99V2.35126H282.94V61.8911L293.51 2.35126H316.325L303.628 70.4209L318.967 150.99H295.443L283.069 79.0352V150.99H260.512Z"/>
<path d="M380.773 152.341C370.418 152.341 362.942 148.963 358.345 142.207C353.79 135.45 351.513 124.697 351.513 109.945V95.4192H373.941V113.999C373.941 117.434 374.328 120.136 375.101 122.107C375.918 124.021 377.314 124.978 379.291 124.978C381.353 124.978 382.771 124.19 383.544 122.613C384.36 121.037 384.769 118.447 384.769 114.844C384.769 110.283 384.425 106.483 383.737 103.442C383.05 100.346 381.847 97.418 380.128 94.6592C378.453 91.844 376.111 88.5785 373.103 84.8625L362.921 72.1945C355.316 62.792 351.513 52.0382 351.513 39.9332C351.513 27.2651 353.748 17.6092 358.216 10.9655C362.727 4.32185 369.237 1 377.744 1C388.141 1 395.51 4.63151 399.85 11.8945C404.232 19.1575 406.423 30.1928 406.423 45.0004H383.351V34.7815C383.351 32.7546 382.9 31.1781 381.997 30.0521C381.138 28.926 379.956 28.363 378.453 28.363C376.648 28.363 375.316 29.0386 374.457 30.3899C373.641 31.6848 373.232 33.3739 373.232 35.4571C373.232 37.5403 373.662 39.7924 374.521 42.2134C375.381 44.6344 377.078 47.4214 379.613 50.5743L392.696 67.0428C395.317 70.3083 397.723 73.7709 399.914 77.4306C402.105 81.034 403.867 85.2566 405.199 90.0987C406.531 94.8844 407.197 100.74 407.197 107.665C407.197 121.628 405.22 132.579 401.267 140.518C397.358 148.4 390.526 152.341 380.773 152.341Z"/>
<path d="M413.77 150.99V2.35126H435.683V150.99H413.77Z"/>
<path d="M444.706 150.99V2.35126H468.036L478.476 73.5457V2.35126H500.389V150.99H478.219L466.876 76.6705V150.99H444.706Z"/>
<path d="M510.443 150.99V2.35126H533.773L544.214 73.5457V2.35126H566.126V150.99H543.956L532.613 76.6705V150.99H510.443Z"/>
<path d="M576.18 150.99V2.35126H621.552V31.0655H599.253V60.0331H620.649V87.9873H599.253V122.022H623.034V150.99H576.18Z"/>
<path d="M630.574 150.99V2.35126H665.377C671.177 2.35126 675.559 4.09664 678.524 7.58739C681.489 11.0218 683.465 15.8639 684.453 22.1134C685.484 28.3067 686 35.5979 686 43.9869C686 52.0945 685.205 58.5693 683.615 63.4113C682.069 68.2533 679.125 71.6033 674.786 73.4613C678.352 74.4184 680.844 76.755 682.262 80.4709C683.723 84.1306 684.453 88.8882 684.453 94.7436V150.99H662.09V92.8012C662.09 88.4659 661.402 85.7915 660.027 84.7781C658.695 83.7083 656.526 83.1735 653.518 83.1735V150.99H630.574ZM653.647 57.4151H659.125C662.262 57.4151 663.83 52.939 663.83 43.9869C663.83 38.1878 663.486 34.3874 662.799 32.5857C662.111 30.784 660.822 29.8832 658.932 29.8832H653.647V57.4151Z"/>
</mask>
<path d="M1 157.649V9.01022H32.193C40.3564 9.01022 46.5005 11.9943 50.6252 17.9623C54.7499 23.8741 56.8122 32.5447 56.8122 43.9741V113.564C56.8122 127.64 54.9217 138.506 51.1408 146.163C47.4028 153.82 40.829 157.649 31.4196 157.649H1ZM23.8147 131.384H27.746C31.9137 131.384 33.9975 128.737 33.9975 123.445V46.761C33.9975 41.8064 33.4819 38.6253 32.4508 37.2178C31.4626 35.7539 29.4217 35.022 26.3282 35.022H23.8147V131.384Z" fill="black" fill-opacity="0.2" style="mix-blend-mode:luminosity"/>
<path d="M62.9993 157.649L73.9555 9.01022H112.431L123.194 157.649H101.733L100.121 133.664H86.4584L85.0406 157.649H62.9993ZM88.0697 109.932H98.3814L93.4189 34.3463H92.3877L88.0697 109.932Z" fill="black" fill-opacity="0.2" style="mix-blend-mode:luminosity"/>
<path d="M129.123 157.649V9.01022H151.036V157.649H129.123Z" fill="black" fill-opacity="0.2" style="mix-blend-mode:luminosity"/>
<path d="M160.058 157.649V9.01022H183.389L193.829 80.2047V9.01022H215.742V157.649H193.572L182.229 83.3295V157.649H160.058Z" fill="black" fill-opacity="0.2" style="mix-blend-mode:luminosity"/>
<path d="M224.764 157.649V9.01022H246.677V157.649H224.764Z" fill="black" fill-opacity="0.2" style="mix-blend-mode:luminosity"/>
<path d="M255.7 157.649V9.01022H278.128V68.5501L288.697 9.01022H311.512L298.816 77.0799L314.154 157.649H290.631L278.257 85.6942V157.649H255.7Z" fill="black" fill-opacity="0.2" style="mix-blend-mode:luminosity"/>
<path d="M375.96 159C365.605 159 358.13 155.622 353.532 148.866C348.978 142.109 346.701 131.355 346.701 116.604V102.078H369.129V120.658C369.129 124.092 369.515 126.795 370.289 128.766C371.105 130.68 372.501 131.637 374.478 131.637C376.54 131.637 377.958 130.849 378.731 129.272C379.548 127.696 379.956 125.106 379.956 121.503C379.956 116.942 379.612 113.142 378.925 110.101C378.237 107.005 377.034 104.077 375.316 101.318C373.64 98.503 371.298 95.2375 368.291 91.5215L358.108 78.8534C350.503 69.4509 346.701 58.6972 346.701 46.5921C346.701 33.9241 348.935 24.2682 353.403 17.6245C357.915 10.9808 364.424 7.65896 372.931 7.65896C383.329 7.65896 390.697 11.2905 395.037 18.5535C399.419 25.8165 401.611 36.8518 401.611 51.6593H378.538V41.4404C378.538 39.4136 378.087 37.8371 377.185 36.711C376.325 35.585 375.144 35.022 373.64 35.022C371.836 35.022 370.504 35.6976 369.644 37.0489C368.828 38.3438 368.42 40.0329 368.42 42.1161C368.42 44.1993 368.849 46.4514 369.709 48.8724C370.568 51.2934 372.265 54.0803 374.8 57.2333L387.883 73.7018C390.504 76.9673 392.91 80.4299 395.101 84.0896C397.293 87.6929 399.054 91.9156 400.386 96.7576C401.718 101.543 402.384 107.399 402.384 114.324C402.384 128.287 400.408 139.238 396.455 147.176C392.545 155.059 385.713 159 375.96 159Z" fill="black" fill-opacity="0.2" style="mix-blend-mode:luminosity"/>
<path d="M408.958 157.649V9.01022H430.87V157.649H408.958Z" fill="black" fill-opacity="0.2" style="mix-blend-mode:luminosity"/>
<path d="M439.893 157.649V9.01022H463.223L473.664 80.2047V9.01022H495.576V157.649H473.406L462.063 83.3295V157.649H439.893Z" fill="black" fill-opacity="0.2" style="mix-blend-mode:luminosity"/>
<path d="M505.63 157.649V9.01022H528.96L539.401 80.2047V9.01022H561.314V157.649H539.143L527.8 83.3295V157.649H505.63Z" fill="black" fill-opacity="0.2" style="mix-blend-mode:luminosity"/>
<path d="M571.367 157.649V9.01022H616.739V37.7245H594.44V66.6921H615.837V94.6463H594.44V128.681H618.221V157.649H571.367Z" fill="black" fill-opacity="0.2" style="mix-blend-mode:luminosity"/>
<path d="M625.762 157.649V9.01022H660.564C666.364 9.01022 670.747 10.7556 673.711 14.2464C676.676 17.6808 678.652 22.5228 679.641 28.7724C680.672 34.9657 681.187 42.2568 681.187 50.6459C681.187 58.7535 680.393 65.2282 678.803 70.0702C677.256 74.9123 674.313 78.2623 669.973 80.1202C673.539 81.0774 676.031 83.4139 677.449 87.1299C678.91 90.7896 679.641 95.5471 679.641 101.403V157.649H657.277V99.4601C657.277 95.1249 656.59 92.4505 655.215 91.437C653.883 90.3673 651.713 89.8324 648.705 89.8324V157.649H625.762ZM648.834 64.074H654.312C657.449 64.074 659.017 59.598 659.017 50.6459C659.017 44.8467 658.673 41.0463 657.986 39.2446C657.299 37.443 656.01 36.5421 654.119 36.5421H648.834V64.074Z" fill="black" fill-opacity="0.2" style="mix-blend-mode:luminosity"/>
<path d="M5.81263 150.99V2.35126H37.0056C45.1691 2.35126 51.3131 5.33529 55.4378 11.3034C59.5625 17.2151 61.6249 25.8857 61.6249 37.3151V106.905C61.6249 120.981 59.7344 131.847 55.9534 139.504C52.2154 147.161 45.6417 150.99 36.2322 150.99H5.81263ZM28.6273 124.725H32.5587C36.7263 124.725 38.8102 122.078 38.8102 116.786V40.1021C38.8102 35.1474 38.2946 31.9664 37.2634 30.5588C36.2752 29.0949 34.2343 28.363 31.1408 28.363H28.6273V124.725Z" fill="black" fill-opacity="0.9"/>
<path d="M67.8119 150.99L78.7681 2.35126H117.244L128.007 150.99H106.545L104.934 127.005H91.2711L89.8532 150.99H67.8119ZM92.8823 103.273H103.194L98.2315 27.6874H97.2003L92.8823 103.273Z" fill="black" fill-opacity="0.9"/>
<path d="M133.936 150.99V2.35126H155.848V150.99H133.936Z" fill="black" fill-opacity="0.9"/>
<path d="M164.871 150.99V2.35126H188.201L198.642 73.5457V2.35126H220.554V150.99H198.384L187.041 76.6705V150.99H164.871Z" fill="black" fill-opacity="0.9"/>
<path d="M229.577 150.99V2.35126H251.49V150.99H229.577Z" fill="black" fill-opacity="0.9"/>
<path d="M260.512 150.99V2.35126H282.94V61.8911L293.51 2.35126H316.325L303.628 70.4209L318.967 150.99H295.443L283.069 79.0352V150.99H260.512Z" fill="black" fill-opacity="0.9"/>
<path d="M380.773 152.341C370.418 152.341 362.942 148.963 358.345 142.207C353.79 135.45 351.513 124.697 351.513 109.945V95.4192H373.941V113.999C373.941 117.434 374.328 120.136 375.101 122.107C375.918 124.021 377.314 124.978 379.291 124.978C381.353 124.978 382.771 124.19 383.544 122.613C384.36 121.037 384.769 118.447 384.769 114.844C384.769 110.283 384.425 106.483 383.737 103.442C383.05 100.346 381.847 97.418 380.128 94.6592C378.453 91.844 376.111 88.5785 373.103 84.8625L362.921 72.1945C355.316 62.792 351.513 52.0382 351.513 39.9332C351.513 27.2651 353.748 17.6092 358.216 10.9655C362.727 4.32185 369.237 1 377.744 1C388.141 1 395.51 4.63151 399.85 11.8945C404.232 19.1575 406.423 30.1928 406.423 45.0004H383.351V34.7815C383.351 32.7546 382.9 31.1781 381.997 30.0521C381.138 28.926 379.956 28.363 378.453 28.363C376.648 28.363 375.316 29.0386 374.457 30.3899C373.641 31.6848 373.232 33.3739 373.232 35.4571C373.232 37.5403 373.662 39.7924 374.521 42.2134C375.381 44.6344 377.078 47.4214 379.613 50.5743L392.696 67.0428C395.317 70.3083 397.723 73.7709 399.914 77.4306C402.105 81.034 403.867 85.2566 405.199 90.0987C406.531 94.8844 407.197 100.74 407.197 107.665C407.197 121.628 405.22 132.579 401.267 140.518C397.358 148.4 390.526 152.341 380.773 152.341Z" fill="black" fill-opacity="0.9"/>
<path d="M413.77 150.99V2.35126H435.683V150.99H413.77Z" fill="black" fill-opacity="0.9"/>
<path d="M444.706 150.99V2.35126H468.036L478.476 73.5457V2.35126H500.389V150.99H478.219L466.876 76.6705V150.99H444.706Z" fill="black" fill-opacity="0.9"/>
<path d="M510.443 150.99V2.35126H533.773L544.214 73.5457V2.35126H566.126V150.99H543.956L532.613 76.6705V150.99H510.443Z" fill="black" fill-opacity="0.9"/>
<path d="M576.18 150.99V2.35126H621.552V31.0655H599.253V60.0331H620.649V87.9873H599.253V122.022H623.034V150.99H576.18Z" fill="black" fill-opacity="0.9"/>
<path d="M630.574 150.99V2.35126H665.377C671.177 2.35126 675.559 4.09664 678.524 7.58739C681.489 11.0218 683.465 15.8639 684.453 22.1134C685.484 28.3067 686 35.5979 686 43.9869C686 52.0945 685.205 58.5693 683.615 63.4113C682.069 68.2533 679.125 71.6033 674.786 73.4613C678.352 74.4184 680.844 76.755 682.262 80.4709C683.723 84.1306 684.453 88.8882 684.453 94.7436V150.99H662.09V92.8012C662.09 88.4659 661.402 85.7915 660.027 84.7781C658.695 83.7083 656.526 83.1735 653.518 83.1735V150.99H630.574ZM653.647 57.4151H659.125C662.262 57.4151 663.83 52.939 663.83 43.9869C663.83 38.1878 663.486 34.3874 662.799 32.5857C662.111 30.784 660.822 29.8832 658.932 29.8832H653.647V57.4151Z" fill="black" fill-opacity="0.9"/>
<path d="M1 157.649V9.01022H32.193C40.3564 9.01022 46.5005 11.9943 50.6252 17.9623C54.7499 23.8741 56.8122 32.5447 56.8122 43.9741V113.564C56.8122 127.64 54.9217 138.506 51.1408 146.163C47.4028 153.82 40.829 157.649 31.4196 157.649H1ZM23.8147 131.384H27.746C31.9137 131.384 33.9975 128.737 33.9975 123.445V46.761C33.9975 41.8064 33.4819 38.6253 32.4508 37.2178C31.4626 35.7539 29.4217 35.022 26.3282 35.022H23.8147V131.384Z" stroke="black" stroke-width="2" mask="url(#path-1-outside-1_62_87)"/>
<path d="M62.9993 157.649L73.9555 9.01022H112.431L123.194 157.649H101.733L100.121 133.664H86.4584L85.0406 157.649H62.9993ZM88.0697 109.932H98.3814L93.4189 34.3463H92.3877L88.0697 109.932Z" stroke="black" stroke-width="2" mask="url(#path-1-outside-1_62_87)"/>
<path d="M129.123 157.649V9.01022H151.036V157.649H129.123Z" stroke="black" stroke-width="2" mask="url(#path-1-outside-1_62_87)"/>
<path d="M160.058 157.649V9.01022H183.389L193.829 80.2047V9.01022H215.742V157.649H193.572L182.229 83.3295V157.649H160.058Z" stroke="black" stroke-width="2" mask="url(#path-1-outside-1_62_87)"/>
<path d="M224.764 157.649V9.01022H246.677V157.649H224.764Z" stroke="black" stroke-width="2" mask="url(#path-1-outside-1_62_87)"/>
<path d="M255.7 157.649V9.01022H278.128V68.5501L288.697 9.01022H311.512L298.816 77.0799L314.154 157.649H290.631L278.257 85.6942V157.649H255.7Z" stroke="black" stroke-width="2" mask="url(#path-1-outside-1_62_87)"/>
<path d="M375.96 159C365.605 159 358.13 155.622 353.532 148.866C348.978 142.109 346.701 131.355 346.701 116.604V102.078H369.129V120.658C369.129 124.092 369.515 126.795 370.289 128.766C371.105 130.68 372.501 131.637 374.478 131.637C376.54 131.637 377.958 130.849 378.731 129.272C379.548 127.696 379.956 125.106 379.956 121.503C379.956 116.942 379.612 113.142 378.925 110.101C378.237 107.005 377.034 104.077 375.316 101.318C373.64 98.503 371.298 95.2375 368.291 91.5215L358.108 78.8534C350.503 69.4509 346.701 58.6972 346.701 46.5921C346.701 33.9241 348.935 24.2682 353.403 17.6245C357.915 10.9808 364.424 7.65896 372.931 7.65896C383.329 7.65896 390.697 11.2905 395.037 18.5535C399.419 25.8165 401.611 36.8518 401.611 51.6593H378.538V41.4404C378.538 39.4136 378.087 37.8371 377.185 36.711C376.325 35.585 375.144 35.022 373.64 35.022C371.836 35.022 370.504 35.6976 369.644 37.0489C368.828 38.3438 368.42 40.0329 368.42 42.1161C368.42 44.1993 368.849 46.4514 369.709 48.8724C370.568 51.2934 372.265 54.0803 374.8 57.2333L387.883 73.7018C390.504 76.9673 392.91 80.4299 395.101 84.0896C397.293 87.6929 399.054 91.9156 400.386 96.7576C401.718 101.543 402.384 107.399 402.384 114.324C402.384 128.287 400.408 139.238 396.455 147.176C392.545 155.059 385.713 159 375.96 159Z" stroke="black" stroke-width="2" mask="url(#path-1-outside-1_62_87)"/>
<path d="M408.958 157.649V9.01022H430.87V157.649H408.958Z" stroke="black" stroke-width="2" mask="url(#path-1-outside-1_62_87)"/>
<path d="M439.893 157.649V9.01022H463.223L473.664 80.2047V9.01022H495.576V157.649H473.406L462.063 83.3295V157.649H439.893Z" stroke="black" stroke-width="2" mask="url(#path-1-outside-1_62_87)"/>
<path d="M505.63 157.649V9.01022H528.96L539.401 80.2047V9.01022H561.314V157.649H539.143L527.8 83.3295V157.649H505.63Z" stroke="black" stroke-width="2" mask="url(#path-1-outside-1_62_87)"/>
<path d="M571.367 157.649V9.01022H616.739V37.7245H594.44V66.6921H615.837V94.6463H594.44V128.681H618.221V157.649H571.367Z" stroke="black" stroke-width="2" mask="url(#path-1-outside-1_62_87)"/>
<path d="M625.762 157.649V9.01022H660.564C666.364 9.01022 670.747 10.7556 673.711 14.2464C676.676 17.6808 678.652 22.5228 679.641 28.7724C680.672 34.9657 681.187 42.2568 681.187 50.6459C681.187 58.7535 680.393 65.2282 678.803 70.0702C677.256 74.9123 674.313 78.2623 669.973 80.1202C673.539 81.0774 676.031 83.4139 677.449 87.1299C678.91 90.7896 679.641 95.5471 679.641 101.403V157.649H657.277V99.4601C657.277 95.1249 656.59 92.4505 655.215 91.437C653.883 90.3673 651.713 89.8324 648.705 89.8324V157.649H625.762ZM648.834 64.074H654.312C657.449 64.074 659.017 59.598 659.017 50.6459C659.017 44.8467 658.673 41.0463 657.986 39.2446C657.299 37.443 656.01 36.5421 654.119 36.5421H648.834V64.074Z" stroke="black" stroke-width="2" mask="url(#path-1-outside-1_62_87)"/>
<path d="M5.81263 150.99V2.35126H37.0056C45.1691 2.35126 51.3131 5.33529 55.4378 11.3034C59.5625 17.2151 61.6249 25.8857 61.6249 37.3151V106.905C61.6249 120.981 59.7344 131.847 55.9534 139.504C52.2154 147.161 45.6417 150.99 36.2322 150.99H5.81263ZM28.6273 124.725H32.5587C36.7263 124.725 38.8102 122.078 38.8102 116.786V40.1021C38.8102 35.1474 38.2946 31.9664 37.2634 30.5588C36.2752 29.0949 34.2343 28.363 31.1408 28.363H28.6273V124.725Z" stroke="black" stroke-width="2" mask="url(#path-1-outside-1_62_87)"/>
<path d="M67.8119 150.99L78.7681 2.35126H117.244L128.007 150.99H106.545L104.934 127.005H91.2711L89.8532 150.99H67.8119ZM92.8823 103.273H103.194L98.2315 27.6874H97.2003L92.8823 103.273Z" stroke="black" stroke-width="2" mask="url(#path-1-outside-1_62_87)"/>
<path d="M133.936 150.99V2.35126H155.848V150.99H133.936Z" stroke="black" stroke-width="2" mask="url(#path-1-outside-1_62_87)"/>
<path d="M164.871 150.99V2.35126H188.201L198.642 73.5457V2.35126H220.554V150.99H198.384L187.041 76.6705V150.99H164.871Z" stroke="black" stroke-width="2" mask="url(#path-1-outside-1_62_87)"/>
<path d="M229.577 150.99V2.35126H251.49V150.99H229.577Z" stroke="black" stroke-width="2" mask="url(#path-1-outside-1_62_87)"/>
<path d="M260.512 150.99V2.35126H282.94V61.8911L293.51 2.35126H316.325L303.628 70.4209L318.967 150.99H295.443L283.069 79.0352V150.99H260.512Z" stroke="black" stroke-width="2" mask="url(#path-1-outside-1_62_87)"/>
<path d="M380.773 152.341C370.418 152.341 362.942 148.963 358.345 142.207C353.79 135.45 351.513 124.697 351.513 109.945V95.4192H373.941V113.999C373.941 117.434 374.328 120.136 375.101 122.107C375.918 124.021 377.314 124.978 379.291 124.978C381.353 124.978 382.771 124.19 383.544 122.613C384.36 121.037 384.769 118.447 384.769 114.844C384.769 110.283 384.425 106.483 383.737 103.442C383.05 100.346 381.847 97.418 380.128 94.6592C378.453 91.844 376.111 88.5785 373.103 84.8625L362.921 72.1945C355.316 62.792 351.513 52.0382 351.513 39.9332C351.513 27.2651 353.748 17.6092 358.216 10.9655C362.727 4.32185 369.237 1 377.744 1C388.141 1 395.51 4.63151 399.85 11.8945C404.232 19.1575 406.423 30.1928 406.423 45.0004H383.351V34.7815C383.351 32.7546 382.9 31.1781 381.997 30.0521C381.138 28.926 379.956 28.363 378.453 28.363C376.648 28.363 375.316 29.0386 374.457 30.3899C373.641 31.6848 373.232 33.3739 373.232 35.4571C373.232 37.5403 373.662 39.7924 374.521 42.2134C375.381 44.6344 377.078 47.4214 379.613 50.5743L392.696 67.0428C395.317 70.3083 397.723 73.7709 399.914 77.4306C402.105 81.034 403.867 85.2566 405.199 90.0987C406.531 94.8844 407.197 100.74 407.197 107.665C407.197 121.628 405.22 132.579 401.267 140.518C397.358 148.4 390.526 152.341 380.773 152.341Z" stroke="black" stroke-width="2" mask="url(#path-1-outside-1_62_87)"/>
<path d="M413.77 150.99V2.35126H435.683V150.99H413.77Z" stroke="black" stroke-width="2" mask="url(#path-1-outside-1_62_87)"/>
<path d="M444.706 150.99V2.35126H468.036L478.476 73.5457V2.35126H500.389V150.99H478.219L466.876 76.6705V150.99H444.706Z" stroke="black" stroke-width="2" mask="url(#path-1-outside-1_62_87)"/>
<path d="M510.443 150.99V2.35126H533.773L544.214 73.5457V2.35126H566.126V150.99H543.956L532.613 76.6705V150.99H510.443Z" stroke="black" stroke-width="2" mask="url(#path-1-outside-1_62_87)"/>
<path d="M576.18 150.99V2.35126H621.552V31.0655H599.253V60.0331H620.649V87.9873H599.253V122.022H623.034V150.99H576.18Z" stroke="black" stroke-width="2" mask="url(#path-1-outside-1_62_87)"/>
<path d="M630.574 150.99V2.35126H665.377C671.177 2.35126 675.559 4.09664 678.524 7.58739C681.489 11.0218 683.465 15.8639 684.453 22.1134C685.484 28.3067 686 35.5979 686 43.9869C686 52.0945 685.205 58.5693 683.615 63.4113C682.069 68.2533 679.125 71.6033 674.786 73.4613C678.352 74.4184 680.844 76.755 682.262 80.4709C683.723 84.1306 684.453 88.8882 684.453 94.7436V150.99H662.09V92.8012C662.09 88.4659 661.402 85.7915 660.027 84.7781C658.695 83.7083 656.526 83.1735 653.518 83.1735V150.99H630.574ZM653.647 57.4151H659.125C662.262 57.4151 663.83 52.939 663.83 43.9869C663.83 38.1878 663.486 34.3874 662.799 32.5857C662.111 30.784 660.822 29.8832 658.932 29.8832H653.647V57.4151Z" stroke="black" stroke-width="2" mask="url(#path-1-outside-1_62_87)"/>
</svg>
