<svg width="512" height="512" viewBox="0 0 512 512" fill="none" xmlns="http://www.w3.org/2000/svg">
<path d="M224.1 0H256.17C259.793 1.12286 269.14 1.04935 273.445 1.51869C285.25 2.77445 296.98 4.65795 308.585 7.1612C377.127 22.1822 431.725 59.9868 470.608 118.038C468.553 119.653 466.25 121.057 464.043 122.469C465.96 124.773 470.447 133.016 472.267 135.94C474.547 134.697 476.803 133.374 479.075 132.111C481.728 136.865 487.4 146.816 487.885 152.013C488.128 156.885 488.053 162.166 488.01 167.029C487.99 169.446 488.345 176.193 487.63 178.05C483.97 187.561 477.415 197.605 473.587 206.935L498.385 236.696C502.108 241.164 509.45 249.297 512 253.988V258.003C509.697 262.073 507.727 266.695 505.522 270.78C503.07 275.33 504.577 278.2 503.425 282.82C501.392 288.175 491.087 290.595 486.677 293.867C484.837 297.402 483.765 303.125 482.04 306.853C484.378 307.66 486.965 308.577 489.305 309.34C504.317 314.225 506.345 314.507 501.272 329.59C499.835 333.812 498.417 338.042 497.022 342.28C503.407 350.702 507.432 358.395 510.02 368.818C510.612 371.215 511.275 376.638 512 378.538V385.978C511.085 387.593 509.055 393.988 508.435 396.095C507.395 399.633 504.505 406.415 504.17 409.795C503.475 416.818 504.677 426.627 503.65 433.517C503.242 436.262 498.755 444.182 497.328 447.365C501.425 452.95 506.933 459.803 509.753 466.008C510.798 468.303 511.132 471.93 512 474.073V482.385C511.238 484.818 510.678 487.58 509.765 489.92C506.335 498.703 501.43 503.853 493.315 508.35C488.873 510.815 485.923 510.535 482.98 512H419.585C418.085 511.152 412.342 510.4 410.372 509.753C401.19 506.745 392.145 502.535 383.185 498.908C367.582 492.568 351.798 486.685 335.848 481.275C328.628 478.827 321.327 476.613 313.965 474.638C307.03 472.808 297.645 471.338 291.58 467.973C263.427 452.358 258.405 408.575 256.497 379.76C255.525 371.315 257.117 363.89 255.117 355.495C253.602 349.142 241.854 332.63 236.584 328.603C234.833 327.265 220.825 328.073 217.917 329.265C207.023 333.733 207.956 343.535 207.995 353.515L208.058 369.68C208.088 378.185 207.957 384.6 197.048 384.075C188.422 383.658 174.731 384.82 166.511 383.71C163.495 383.302 149.723 375.977 146.404 374.125C134.779 367.64 131.249 368.042 118.288 368.055L98.2302 368.092C87.201 368.13 85.9328 368.515 75.8688 363.543C38.8733 345.263 13.8148 309.62 4.96448 269.767C3.4906 264.037 2.77865 258.17 1.80186 252.38C1.15637 248.555 1.25249 240.716 0 237.422V209.658C0.188423 208.886 0.190073 208.783 0.556105 208.049C2.09103 206.88 6.33052 208.06 8.55147 207.98C8.3041 204.781 9.57192 195.818 10.0147 192.198C8.73647 191.694 3.77388 191.173 2.22418 190.977C3.26983 185.284 4.01622 180.062 5.2109 174.295C7.34267 174.791 10.8757 175.723 12.9389 175.977C13.4399 173.025 16.0036 162.554 17.0843 160.107C15.6124 159.305 11.1212 158.281 9.34395 157.87C11.0576 153.396 12.6477 147.492 14.4722 142.541C18.9278 130.433 24.4452 118.742 30.96 107.605C62.685 53.1258 115.612 19.4245 176.583 6.47015C187.074 4.26992 197.668 2.59618 208.326 1.45517C212.374 1.0131 220.5 1.07519 224.1 0Z" fill="#E9E8DE"/>
<path d="M472.267 135.941C474.547 134.697 476.803 133.375 479.075 132.111C481.728 136.866 487.4 146.817 487.885 152.014C488.128 156.886 488.053 162.166 488.01 167.03C487.99 169.447 488.345 176.194 487.63 178.051C483.97 187.561 477.415 197.606 473.587 206.936L498.385 236.697C502.108 241.165 509.45 249.298 512 253.988V258.003C509.697 262.073 507.727 266.696 505.522 270.781C503.07 275.331 504.577 278.201 503.425 282.821C501.392 288.176 491.087 290.596 486.677 293.868C484.837 297.403 483.765 303.126 482.04 306.853C484.378 307.661 486.965 308.578 489.305 309.341C504.317 314.226 506.345 314.508 501.272 329.591C499.835 333.813 498.417 338.043 497.022 342.281C503.407 350.703 507.432 358.396 510.02 368.818C510.612 371.216 511.275 376.638 512 378.538V385.978C511.085 387.593 509.055 393.988 508.435 396.096C507.395 399.633 504.505 406.416 504.17 409.796C503.475 416.818 504.677 426.628 503.65 433.518C503.242 436.263 498.755 444.183 497.328 447.366C501.425 452.951 506.933 459.803 509.753 466.008C510.798 468.303 511.132 471.931 512 474.073V482.386C511.238 484.818 510.678 487.581 509.765 489.921C506.335 498.703 501.43 503.853 493.315 508.351C488.873 510.816 485.923 510.536 482.98 512.001H419.585C418.085 511.153 412.342 510.401 410.372 509.753C401.19 506.746 392.145 502.536 383.185 498.908C367.582 492.568 351.798 486.686 335.848 481.276C328.628 478.828 321.327 476.613 313.965 474.638C307.03 472.808 297.645 471.338 291.58 467.973C263.427 452.358 258.405 408.576 256.497 379.761C255.525 371.316 257.117 363.891 255.117 355.496C253.602 349.143 241.854 332.631 236.584 328.603C234.833 327.266 220.825 328.073 217.917 329.266C207.023 333.733 207.956 343.536 207.995 353.516L208.058 369.681C208.088 378.186 207.957 384.601 197.048 384.076C188.422 383.658 174.731 384.821 166.511 383.711C163.495 383.303 149.723 375.978 146.404 374.126C134.779 367.641 131.249 368.043 118.288 368.056L98.2302 368.093C87.201 368.131 85.9328 368.516 75.8688 363.543C38.8733 345.263 13.8148 309.621 4.96448 269.768C3.4906 264.038 2.77865 258.171 1.80186 252.381C1.15637 248.556 1.25249 240.717 0 237.423V209.659C0.188423 208.887 0.190073 208.784 0.556105 208.05C2.09103 206.881 6.33052 208.061 8.55147 207.981C10.8886 208.195 14.1321 208.484 16.4935 208.513C15.1048 243.103 18.0876 276.293 36.4953 306.628C48.258 326.011 65.585 342.138 86.652 350.976C92.7183 353.456 112.096 351.306 119.474 351.986C124.927 352.488 131.842 351.453 137.475 353.073C149.12 355.866 159.493 364.281 170.831 367.823C172.109 368.221 177.34 368.043 178.931 368.038L191.997 367.988L191.99 352.133C191.981 340.028 192.017 330.803 201.283 321.513C210.803 311.968 219.652 312.028 231.999 311.983L231.986 288.403C229.374 288.263 226.622 288.073 224.02 287.986C224 282.753 223.89 277.181 223.989 271.978C244.083 271.466 265.04 278.223 279.897 292.008C293.795 282.241 309.763 277.696 326.758 280.638C350.165 285.746 368.552 304.311 384.062 321.436C387.035 324.718 393.25 333.091 396.11 334.878C400.665 337.726 420.272 334.553 424.112 336.141L424.555 337.878C424.937 336.861 425.685 336.088 426.105 335.096C428.385 329.716 429.902 323.843 431.582 318.231L438.892 293.853L442.073 283.283C442.518 281.811 443.157 280.541 443.305 279.116C452.637 276.768 460.213 269.056 462.575 259.776C463.59 255.791 463.817 252.038 464.017 247.964L455.828 247.961L448.057 247.97C447.667 251.736 447.765 254.286 446.4 257.818C443.61 255.991 440.963 252.621 439.065 249.892C426.73 232.152 432.275 208.074 443.41 191.237C444.58 189.467 446.15 186.802 447.945 185.597C449.218 192.43 450.162 202.575 451.08 209.662C453.745 209.299 455.727 210.062 455.932 207.179C456.895 203.716 459.122 199.75 460.775 196.461L467.997 182.124C472.557 173.111 471.778 174.771 472.008 164.711C472.293 152.28 471.497 150.931 465.022 139.821C467.185 138.809 470.092 137.1 472.267 135.941Z" fill="black"/>
<path d="M447.945 185.596C449.217 192.429 450.162 202.574 451.08 209.661C453.745 209.298 455.727 210.061 455.932 207.178C456.002 208.319 456.115 210.574 456.73 211.446C460.182 216.338 464.755 221.488 468.602 226.1L494.537 257.235C493.18 259.505 491.877 262.655 490.712 264.515C488.567 268.827 487.837 270.22 487.97 275.18C485.02 276.42 475.832 280.605 474.025 282.775C471.125 287.547 469.61 294.167 467.732 299.4C466.31 303.362 464.95 307.33 464.122 311.212C463.27 315.21 466.75 318.677 470.23 319.87C475.44 321.655 480.695 323.375 485.942 325.095C483.91 330.82 481.375 337.472 480.137 343.39C479.307 347.352 483.857 351.23 485.89 354.182C489.225 358.79 491.492 363.56 493.455 368.865C487.502 367.39 477.59 367.287 471.865 370.17C466.052 366.907 453.792 367.175 447.865 370.167C442.027 366.9 429.81 367.185 423.85 370.167C418.065 366.89 405.76 367.187 399.852 370.172C395.2 367.542 387.24 367.582 381.945 368.152C379.337 364.402 375.66 360.8 370.832 360.332C358.532 359.14 348.567 359.35 344.215 372.692C344.085 368.257 343.907 365.447 344.545 361C346.562 346.922 356.912 345.962 359.632 332.487C362.572 332.817 377.455 352.392 381.205 355.765C382.682 357.112 384.402 358.17 386.27 358.88C390.307 360.385 395.597 360.077 399.88 360.042C404.762 360.002 409.717 360.022 413.622 356.707C415.03 355.512 416.692 353.55 418.14 352.357C418.087 352.402 419.762 352.075 419.892 352.047L424.042 352.01C424.035 346.945 423.9 341.15 424.112 336.14L424.555 337.877C424.937 336.86 425.685 336.087 426.105 335.095C428.385 329.715 429.902 323.842 431.582 318.23L438.892 293.852L442.072 283.282C442.517 281.81 443.157 280.54 443.305 279.115C452.637 276.767 460.212 269.055 462.575 259.775C463.59 255.79 463.817 252.037 464.017 247.963L455.827 247.96L448.057 247.969C447.667 251.735 447.765 254.285 446.4 257.817C443.61 255.99 440.962 252.62 439.065 249.891C426.73 232.151 432.275 208.073 443.41 191.236C444.58 189.466 446.15 186.801 447.945 185.596Z" fill="#DAD8D0"/>
<path d="M447.945 185.596C449.217 192.429 450.162 202.574 451.08 209.661C453.745 209.298 455.727 210.061 455.932 207.178C456.002 208.319 456.115 210.574 456.73 211.446C460.182 216.338 464.755 221.488 468.602 226.1L494.537 257.235C493.18 259.505 491.877 262.655 490.712 264.515C488.787 262.767 481.955 253.155 479.885 250.495C470.507 238.445 461.47 225.259 451.925 213.398C451.907 215.278 452.402 217.757 452.63 219.743L454.752 236.886C455.257 240.864 455.742 243.942 455.827 247.96L448.057 247.969C447.667 251.735 447.765 254.285 446.4 257.817C443.61 255.99 440.962 252.62 439.065 249.891C426.73 232.151 432.275 208.073 443.41 191.236C444.58 189.466 446.15 186.801 447.945 185.596Z" fill="#A2A19C"/>
<path d="M360.103 319.461C365.03 324.413 369.8 329.521 374.405 334.776C383.738 345.576 386.038 351.928 402.613 352.031C407.215 352.058 415.415 351.866 419.893 352.048C419.763 352.076 418.088 352.403 418.14 352.358C416.693 353.551 415.03 355.513 413.623 356.708C409.718 360.023 404.763 360.003 399.88 360.043C395.598 360.078 390.308 360.386 386.27 358.881C384.403 358.171 382.683 357.113 381.205 355.766C377.455 352.393 362.573 332.818 359.633 332.488C359.998 328.061 360.05 323.906 360.103 319.461Z" fill="#A2A19C"/>
<path d="M248.03 291.67C256.233 294.435 263.653 298.422 269.92 304.6C272.338 306.982 273.205 310.145 274.443 313.257C275.818 316.72 279.033 319.762 281.68 322.105C289.73 327.3 301.733 329.175 310.983 327.395C324.835 323.23 331.198 313.842 334.558 300.087C337.713 301.962 340.84 303.882 343.938 305.845L344.028 320.115C344.043 322.075 344.17 327.642 343.778 329.325C343.375 333.04 339.445 335.952 337.225 338.88C318.288 363.82 331.758 397.865 348.635 419.937C365.638 442.172 387.448 455.512 413.82 463.757C414.28 462.125 415.495 457.407 416.04 456.037L418.258 448.21C404.283 444.832 392.085 437.497 380.475 429.38C385.063 430.87 390.203 432.747 394.903 431.435C398.663 435.98 403.895 437.457 409.413 438.872C416.623 440.722 419.988 440.327 426.235 436.65C435.133 439.967 441.95 441.9 450.318 436.567C450.943 436.887 451.253 437.005 451.928 437.215C459.498 439.585 464.663 441.527 472.053 437.817C476.065 439.96 478.513 439.89 482.97 440.23C481.258 443.305 479.888 445.605 480.04 449.182C481.538 454.172 486.57 459.152 489.353 463.757C493.218 468.095 496.045 472.58 495.935 478.487C495.89 483.175 493.963 487.647 490.59 490.9C488.83 492.592 485.233 494.965 482.865 495.327C476.035 496.372 467.563 495.972 460.58 496.015C449.59 496.08 438.76 496 427.793 495.975C424.943 495.967 419.183 495.625 416.698 494.897C408.48 492.497 399.908 488.482 391.93 485.182C380.565 480.54 369.108 476.12 357.565 471.927C348.35 468.622 338.54 465.09 329.168 462.315C324.685 460.96 320.175 459.7 315.638 458.535C310.698 457.287 301.703 455.79 297.64 452.905C277.648 438.707 274.143 402.212 272.538 379.817C271.915 371.142 272.838 359.05 270.628 351.552C267.185 339.87 256.535 325.68 248.16 317.002C247.77 313.092 248.018 305.057 248.039 300.825C247.98 297.772 247.977 294.72 248.03 291.67Z" fill="#E9E8DE"/>
<path d="M380.475 429.381C385.062 430.871 390.202 432.748 394.902 431.436C398.662 435.981 403.895 437.458 409.412 438.873C416.622 440.723 419.987 440.328 426.235 436.651C435.132 439.968 441.95 441.901 450.317 436.568C450.942 436.888 451.252 437.006 451.927 437.216C459.497 439.586 464.662 441.528 472.052 437.818C476.065 439.961 478.512 439.891 482.97 440.231C481.257 443.306 479.887 445.606 480.04 449.183C475.197 449.471 418.125 455.463 416.99 456.171L416.04 456.038L418.257 448.211C404.282 444.833 392.085 437.498 380.475 429.381Z" fill="#DAD8D0"/>
<path d="M480.04 449.182C481.538 454.172 486.57 459.152 489.353 463.757C487.75 464.067 480.393 463.714 478.363 463.629C463.713 463.009 449.108 461.567 434.62 459.314C428.718 458.404 422.87 457.214 416.99 456.169C418.125 455.462 475.198 449.469 480.04 449.182Z" fill="#A2A19C"/>
<path d="M334.557 300.088C337.712 301.963 340.84 303.883 343.937 305.845L344.027 320.115C344.042 322.075 344.17 327.643 343.777 329.325C343.607 327.105 343.855 321.78 343.872 319.258C335.92 325.435 325.247 327.623 315.395 327.808C313.56 327.843 312.752 327.823 310.982 327.395C324.835 323.23 331.197 313.843 334.557 300.088Z" fill="#A2A19C"/>
<path d="M248.03 291.67C256.233 294.435 263.653 298.422 269.92 304.6C272.338 306.982 273.205 310.145 274.443 313.257C275.818 316.72 279.033 319.762 281.68 322.105C278.89 322.14 276.96 320.165 275.175 318.275C272.815 315.772 272.195 311.97 270.26 309.357C265.355 302.732 255.95 299.367 248.155 297.962C248.155 298.95 248.099 299.837 248.039 300.825C247.98 297.772 247.977 294.72 248.03 291.67Z" fill="#A2A19C"/>
<path d="M314.05 296.355C315.147 296.212 317.737 296.215 318.947 296.18L318.877 296.512C315.897 310.192 308.392 314.057 295.057 310.82C291.707 309.445 290.677 308.845 288.475 305.91C295.685 299.152 304.465 297.185 314.05 296.355Z" fill="#757371"/>
<path d="M354.085 399.061C358.042 400.193 363.83 400.016 367.997 400.006C367.982 405.733 367.815 412.523 368.257 418.123C366.992 416.521 365.105 414.563 363.702 412.908C361.045 409.746 358.59 406.416 356.35 402.943C355.725 401.966 354.47 400.053 354.085 399.061Z" fill="#DAD8D0"/>
<path d="M432.008 384.023H439.998L439.988 399.978L432.028 399.986L432.008 384.023Z" fill="#DAD8D0"/>
<path d="M456.008 384.023H463.995L463.988 399.978L456.028 399.986L456.008 384.023Z" fill="#DAD8D0"/>
<path d="M480.008 384.023H487.995L487.988 399.978L480.028 399.986L480.008 384.023Z" fill="#DAD8D0"/>
<path d="M408.008 384.023H415.995L415.988 399.978L408.028 399.986L408.008 384.023Z" fill="#DAD8D0"/>
<path d="M360.01 376.026C362.65 375.996 365.35 376.023 367.995 376.026L367.985 383.978L360.028 383.986C359.995 381.348 360.013 378.668 360.01 376.026Z" fill="#DAD8D0"/>
<path d="M384.01 384.026C386.65 383.996 389.35 384.023 391.995 384.026L391.985 391.978L384.028 391.986C383.993 389.343 384.013 386.671 384.01 384.026Z" fill="#DAD8D0"/>
<path d="M480.01 416.026C482.65 415.996 485.35 416.023 487.995 416.026L487.985 423.978L480.028 423.986C479.993 421.343 480.013 418.671 480.01 416.026Z" fill="#DAD8D0"/>
<path d="M408.01 416.028C410.645 415.99 413.355 416.023 415.995 416.023C416.005 418.675 416.045 421.323 415.905 423.97C413.283 423.253 410.663 422.52 408.048 421.778C407.975 419.935 408.013 417.885 408.01 416.028Z" fill="#DAD8D0"/>
<path d="M384.01 408.028C386.645 407.99 389.355 408.023 391.995 408.023C392.005 410.673 392.048 413.323 391.903 415.968C389.28 415.25 386.663 414.52 384.048 413.778C383.975 411.935 384.013 409.885 384.01 408.028Z" fill="#DAD8D0"/>
<path d="M432.01 416.028C434.645 415.99 437.355 416.023 439.995 416.023C440.005 418.675 440.048 421.323 439.903 423.968C437.28 423.25 434.663 422.52 432.048 421.778C431.975 419.933 432.013 417.885 432.01 416.028Z" fill="#DAD8D0"/>
<path d="M456.01 416.028C458.645 415.99 461.355 416.023 463.995 416.023C464.005 418.673 464.048 421.323 463.903 423.968L456.048 421.778C455.975 419.935 456.013 417.885 456.01 416.028Z" fill="#DAD8D0"/>
<path d="M224.1 0H256.17C259.792 1.12286 269.14 1.04935 273.445 1.51869C285.25 2.77445 296.98 4.65795 308.585 7.1612C377.127 22.1822 431.725 59.9868 470.607 118.038C468.552 119.653 466.25 121.057 464.042 122.469L457.32 126.897C450.807 117.299 444.902 109.168 437.252 100.376C400.292 57.9045 352.192 31.6927 297.137 21.185C281.075 18.1678 264.787 16.4916 248.447 16.1738C196.838 14.8544 145.105 25.544 101.908 54.912C64.3968 80.5535 37.0988 118.571 24.7924 162.31C22.9522 161.686 19.0286 160.428 17.0841 160.107C15.6122 159.305 11.121 158.281 9.34375 157.87C11.0574 153.396 12.6475 147.492 14.472 142.541C18.9276 130.433 24.445 118.742 30.9598 107.605C62.6848 53.1258 115.611 19.4245 176.583 6.47015C187.074 4.26992 197.668 2.59618 208.326 1.45517C212.374 1.0131 220.5 1.07519 224.1 0Z" fill="black"/>
<path d="M443.305 279.116C441.17 279.546 439.103 279.881 436.92 279.918C428.103 280.068 421.023 276.126 414.853 270.073C405.06 260.468 399.983 247.882 399.95 234.214C399.895 210.089 414.895 189.106 431.218 172.618C434.923 168.876 442.758 159.925 448.253 160.038C450.358 160.081 452.488 161.065 453.925 162.597C457.18 166.065 456.048 179.145 456.025 184.01L448.02 184.032L447.945 185.597C446.15 186.802 444.58 189.467 443.41 191.237C432.275 208.074 426.73 232.152 439.065 249.892C440.963 252.621 443.61 255.991 446.4 257.818C447.765 254.286 447.668 251.736 448.058 247.97L455.828 247.961L464.018 247.964C463.818 252.038 463.59 255.791 462.575 259.776C460.213 269.056 452.638 276.768 443.305 279.116Z" fill="black"/>
<path d="M442.35 184.06C444.178 184.001 446.175 184.036 448.02 184.031L447.945 185.596C446.15 186.801 444.58 189.466 443.41 191.237C432.275 208.073 426.73 232.151 439.065 249.891C440.963 252.62 443.61 255.99 446.4 257.818C445.955 258.56 445.375 259.418 444.813 260.065C442.885 262.323 440.135 263.713 437.175 263.93C432.943 264.198 429.705 262.04 426.748 259.293C420.055 253.078 416.18 244.406 416.015 235.274C415.448 214.753 428.995 198.188 442.35 184.06Z" fill="#757371"/>
<path d="M5.21133 174.295C7.34311 174.791 10.8761 175.723 12.9393 175.976C15.556 176.571 18.2381 177.053 20.8282 177.71C19.8582 182.913 19.021 187.87 18.1367 193.072C15.9233 192.651 12.256 192.237 10.0152 192.198C8.73691 191.694 3.77431 191.173 2.22461 190.977C3.27026 185.284 4.01666 180.062 5.21133 174.295Z" fill="black"/>
<path d="M266.163 80.1103C311.913 78.0278 373.57 107.279 394.143 150.158C397.628 157.418 400.675 169.097 399.755 177.264C399.415 180.274 396.643 187.592 395.568 190.808L388.503 211.862C387.35 215.263 384.96 221.622 384.443 224.937C383.008 234.097 385.628 248.196 382.358 256.705C380.063 262.627 375.508 267.395 369.693 269.952C363.023 272.87 351.48 272.025 344.015 272.03L313.665 272.035L288.595 272.03C283.538 272.027 275.173 272.177 270.298 271.272C265.98 270.47 257.94 267.037 253.645 265.317C245.442 261.99 237.217 258.715 228.972 255.487L234.987 240.477C236.354 241.136 238.114 241.808 239.559 242.353C250.673 246.543 261.59 251.74 272.893 255.337C274.95 255.995 279.865 255.945 282.195 255.975H331.713C340.425 255.975 349.175 255.97 357.878 255.937C366.295 255.905 368 252.302 367.99 244.396C367.975 238.531 367.923 232.675 368.015 226.811C368.113 220.634 370.588 214.807 372.538 208.989L380.333 185.763C381.575 182.058 384.065 175.812 383.75 172.138C382.405 156.488 371.803 142.365 360.553 132.223C340.585 114.223 309.905 100.054 283.22 96.7828C276.963 96.0736 270.653 95.9096 264.365 96.2923C241.597 97.5003 221.541 108.007 206.412 124.851C203.287 122.321 196.744 117.392 193.456 115.236C197.81 110.786 200.275 107.761 205.234 103.644C223.19 88.7358 243.055 81.2158 266.163 80.1103Z" fill="black"/>
<path d="M254.725 104.109C259.228 104.195 263.148 104.356 267.73 105.104C285.365 107.982 302.803 118.121 313.68 132.359C317.953 137.954 321.03 146.476 319.58 153.409C318.62 158.005 317.088 161.699 313.02 164.407C305.683 169.291 298.6 168.188 290.538 166.654C273.493 163.059 258.65 157.833 243.303 149.387C234.855 144.737 224.826 140.148 224.195 128.796C223.556 117.32 231.384 108.801 241.983 105.693C246.463 104.379 250.055 104.287 254.725 104.109Z" fill="#DAD8D0"/>
</svg>
